<?xml version="1.0" encoding="utf-8"?>
<!-- Generator: Adobe Illustrator 16.0.0, SVG Export Plug-In . SVG Version: 6.00 Build 0)  -->
<!DOCTYPE svg PUBLIC "-//W3C//DTD SVG 1.1//EN" "http://www.w3.org/Graphics/SVG/1.1/DTD/svg11.dtd">
<svg version="1.1" id="_x23_Layer_1" xmlns="http://www.w3.org/2000/svg" xmlns:xlink="http://www.w3.org/1999/xlink" x="0px"
	 y="0px" width="2321.536px" height="1700px" viewBox="0 0 2321.536 1700" enable-background="new 0 0 2321.536 1700"
	 xml:space="preserve">
<rect x="-18.85" y="-6.281" fill-rule="evenodd" clip-rule="evenodd" fill="#8FD4D8" width="2352.497" height="1721.686"/>
<g>
	<polygon opacity="0.25" fill-rule="evenodd" clip-rule="evenodd" fill="#4EABB5" points="1898.646,1181.738 1633.926,1181.738 
		1633.926,778.816 1665.851,778.816 1665.851,666.355 1898.646,666.355 	"/>
	<polygon opacity="0.25" fill-rule="evenodd" clip-rule="evenodd" fill="#58AAB2" points="1501.667,471.109 1501.667,419.615 
		1376.431,419.615 1376.431,471.109 1329.585,471.109 1329.585,1048.375 1548.512,1048.375 1548.512,471.109 	"/>
	<polygon opacity="0.25" fill-rule="evenodd" clip-rule="evenodd" fill="#48A4AE" points="805.734,686.805 805.734,1181.738 
		1087.532,1181.738 1087.532,881.242 1061.157,881.242 1061.157,686.805 	"/>
	<polygon opacity="0.25" fill-rule="evenodd" clip-rule="evenodd" fill="#48A9B3" points="1616.019,471.109 1577.978,471.109 
		1577.978,1048.375 1796.907,1048.375 1796.907,465.203 1665.851,465.203 1665.851,778.816 1616.019,778.816 	"/>
	<polygon opacity="0.5" fill-rule="evenodd" clip-rule="evenodd" fill="#52B1BB" points="1298.237,424.004 1298.237,315.139 
		1247.815,315.139 1247.815,216.263 1125.021,216.263 1125.021,315.139 1110.448,315.139 1110.448,881.242 1061.157,881.242 
		1061.157,531.689 1005.068,531.689 1005.068,1181.738 1367.765,1181.738 1367.765,424.004 	"/>
	<g>
		<g>
			<g>
				<g>
					<rect x="1040.789" y="541.57" fill-rule="evenodd" clip-rule="evenodd" fill="#B2E0E1" width="20.368" height="27.92"/>
				</g>
				<g>
					<rect x="1110.448" y="541.57" fill-rule="evenodd" clip-rule="evenodd" fill="#B2E0E1" width="34.893" height="27.92"/>
				</g>
				<g>
					<rect x="1171.87" y="541.57" fill-rule="evenodd" clip-rule="evenodd" fill="#B2E0E1" width="38.484" height="27.92"/>
				</g>
				<g>
					<rect x="1237.932" y="541.57" fill-rule="evenodd" clip-rule="evenodd" fill="#B2E0E1" width="38.481" height="27.92"/>
				</g>
				<g>
					<rect x="1302.95" y="541.57" fill-rule="evenodd" clip-rule="evenodd" fill="#B2E0E1" width="38.481" height="27.92"/>
				</g>
			</g>
			<g>
				<g>
					<rect x="1040.789" y="579.312" fill-rule="evenodd" clip-rule="evenodd" fill="#B2E0E1" width="20.368" height="27.918"/>
				</g>
				<g>
					<rect x="1110.448" y="579.312" fill-rule="evenodd" clip-rule="evenodd" fill="#B2E0E1" width="34.893" height="27.918"/>
				</g>
				<g>
					<rect x="1171.87" y="579.312" fill-rule="evenodd" clip-rule="evenodd" fill="#B2E0E1" width="38.484" height="27.918"/>
				</g>
				<g>
					<rect x="1237.932" y="579.312" fill-rule="evenodd" clip-rule="evenodd" fill="#B2E0E1" width="38.481" height="27.918"/>
				</g>
				<g>
					<rect x="1302.95" y="579.312" fill-rule="evenodd" clip-rule="evenodd" fill="#B2E0E1" width="38.481" height="27.918"/>
				</g>
			</g>
			<g>
				<g>
					<rect x="1040.789" y="618.605" fill-rule="evenodd" clip-rule="evenodd" fill="#B2E0E1" width="20.368" height="27.922"/>
				</g>
				<g>
					<rect x="1110.448" y="618.605" fill-rule="evenodd" clip-rule="evenodd" fill="#B2E0E1" width="34.893" height="27.922"/>
				</g>
				<g>
					<rect x="1171.87" y="618.605" fill-rule="evenodd" clip-rule="evenodd" fill="#B2E0E1" width="38.484" height="27.922"/>
				</g>
				<g>
					<rect x="1237.932" y="618.605" fill-rule="evenodd" clip-rule="evenodd" fill="#B2E0E1" width="38.481" height="27.922"/>
				</g>
				<g>
					<rect x="1302.95" y="618.605" fill-rule="evenodd" clip-rule="evenodd" fill="#B2E0E1" width="38.481" height="27.922"/>
				</g>
			</g>
		</g>
		<g>
			<g>
				<g>
					<g>
						<rect x="1298.923" y="562.25" fill-rule="evenodd" clip-rule="evenodd" fill="#76BCE8" width="46.535" height="7.24"/>
					</g>
					<g>
						<rect x="1298.923" y="600.51" fill-rule="evenodd" clip-rule="evenodd" fill="#76BCE8" width="46.535" height="6.72"/>
					</g>
					<g>
						<rect x="1298.923" y="639.285" fill-rule="evenodd" clip-rule="evenodd" fill="#76BCE8" width="46.535" height="7.242"/>
					</g>
				</g>
			</g>
			<g>
				<g>
					<g>
						<rect x="1233.903" y="562.25" fill-rule="evenodd" clip-rule="evenodd" fill="#76BCE8" width="46.536" height="7.24"/>
					</g>
					<g>
						<rect x="1233.903" y="600.51" fill-rule="evenodd" clip-rule="evenodd" fill="#76BCE8" width="46.536" height="6.72"/>
					</g>
					<g>
						<rect x="1233.903" y="639.285" fill-rule="evenodd" clip-rule="evenodd" fill="#76BCE8" width="46.536" height="7.242"/>
					</g>
				</g>
			</g>
			<g>
				<g>
					<g>
						<rect x="1167.842" y="562.25" fill-rule="evenodd" clip-rule="evenodd" fill="#76BCE8" width="46.534" height="7.24"/>
					</g>
					<g>
						<rect x="1167.842" y="600.51" fill-rule="evenodd" clip-rule="evenodd" fill="#76BCE8" width="46.534" height="6.72"/>
					</g>
					<g>
						<rect x="1167.842" y="639.285" fill-rule="evenodd" clip-rule="evenodd" fill="#76BCE8" width="46.534" height="7.242"/>
					</g>
				</g>
			</g>
			<g>
				<g>
					<g>
						<rect x="1110.448" y="562.25" fill-rule="evenodd" clip-rule="evenodd" fill="#76BCE8" width="38.917" height="7.24"/>
					</g>
					<g>
						<rect x="1110.448" y="600.51" fill-rule="evenodd" clip-rule="evenodd" fill="#76BCE8" width="38.917" height="6.72"/>
					</g>
					<g>
						<rect x="1110.448" y="639.285" fill-rule="evenodd" clip-rule="evenodd" fill="#76BCE8" width="38.917" height="7.242"/>
					</g>
				</g>
			</g>
			<g>
				<g>
					<g>
						<g>
							<rect x="1036.764" y="562.25" fill-rule="evenodd" clip-rule="evenodd" fill="#76BCE8" width="24.394" height="7.24"/>
						</g>
					</g>
					<g>
						<g>
							<rect x="1036.764" y="600.51" fill-rule="evenodd" clip-rule="evenodd" fill="#76BCE8" width="24.394" height="6.72"/>
						</g>
					</g>
					<g>
						<g>
							<rect x="1036.764" y="639.285" fill-rule="evenodd" clip-rule="evenodd" fill="#76BCE8" width="24.394" height="7.242"/>
						</g>
					</g>
				</g>
			</g>
		</g>
		<g>
			<g>
				<g>
					<rect x="1110.546" y="394.986" fill-rule="evenodd" clip-rule="evenodd" fill="#B2E0E1" width="35.316" height="25.623"/>
				</g>
				<g>
					<rect x="1171.179" y="394.986" fill-rule="evenodd" clip-rule="evenodd" fill="#B2E0E1" width="35.314" height="25.623"/>
				</g>
				<g>
					<rect x="1230.84" y="394.986" fill-rule="evenodd" clip-rule="evenodd" fill="#B2E0E1" width="35.316" height="25.623"/>
				</g>
			</g>
			<g>
				<g>
					<rect x="1110.546" y="429.623" fill-rule="evenodd" clip-rule="evenodd" fill="#B2E0E1" width="35.316" height="25.619"/>
				</g>
				<g>
					<rect x="1171.179" y="429.623" fill-rule="evenodd" clip-rule="evenodd" fill="#B2E0E1" width="35.314" height="25.619"/>
				</g>
				<g>
					<rect x="1230.84" y="429.623" fill-rule="evenodd" clip-rule="evenodd" fill="#B2E0E1" width="35.316" height="25.619"/>
				</g>
			</g>
			<g>
				<g>
					<rect x="1110.546" y="465.68" fill-rule="evenodd" clip-rule="evenodd" fill="#B2E0E1" width="35.316" height="25.625"/>
				</g>
				<g>
					<rect x="1171.179" y="465.68" fill-rule="evenodd" clip-rule="evenodd" fill="#B2E0E1" width="35.314" height="25.625"/>
				</g>
				<g>
					<rect x="1230.84" y="465.68" fill-rule="evenodd" clip-rule="evenodd" fill="#B2E0E1" width="35.316" height="25.625"/>
				</g>
			</g>
		</g>
		<g>
			<g>
				<g>
					<g>
						<rect x="1227.146" y="413.962" fill-rule="evenodd" clip-rule="evenodd" fill="#76BCE8" width="42.7" height="6.647"/>
					</g>
					<g>
						<rect x="1227.146" y="449.073" fill-rule="evenodd" clip-rule="evenodd" fill="#76BCE8" width="42.7" height="6.169"/>
					</g>
					<g>
						<rect x="1227.146" y="484.66" fill-rule="evenodd" clip-rule="evenodd" fill="#76BCE8" width="42.7" height="6.645"/>
					</g>
				</g>
			</g>
			<g>
				<g>
					<g>
						<rect x="1167.484" y="413.962" fill-rule="evenodd" clip-rule="evenodd" fill="#76BCE8" width="42.705" height="6.647"/>
					</g>
					<g>
						<rect x="1167.484" y="449.073" fill-rule="evenodd" clip-rule="evenodd" fill="#76BCE8" width="42.705" height="6.169"/>
					</g>
					<g>
						<rect x="1167.484" y="484.66" fill-rule="evenodd" clip-rule="evenodd" fill="#76BCE8" width="42.705" height="6.645"/>
					</g>
				</g>
			</g>
			<g>
				<g>
					<g>
						<g>
							<rect x="1110.448" y="413.962" fill-rule="evenodd" clip-rule="evenodd" fill="#76BCE8" width="39.111" height="6.647"/>
						</g>
					</g>
					<g>
						<g>
							<rect x="1110.448" y="449.073" fill-rule="evenodd" clip-rule="evenodd" fill="#76BCE8" width="39.111" height="6.169"/>
						</g>
					</g>
					<g>
						<g>
							<rect x="1110.448" y="484.66" fill-rule="evenodd" clip-rule="evenodd" fill="#76BCE8" width="39.111" height="6.645"/>
						</g>
					</g>
				</g>
			</g>
		</g>
		<g>
			<g>
				<g>
					<rect x="1040.789" y="667.776" fill-rule="evenodd" clip-rule="evenodd" fill="#B2E0E1" width="20.368" height="27.922"/>
				</g>
				<g>
					<rect x="1110.448" y="667.776" fill-rule="evenodd" clip-rule="evenodd" fill="#B2E0E1" width="34.893" height="27.922"/>
				</g>
				<g>
					<rect x="1171.87" y="667.776" fill-rule="evenodd" clip-rule="evenodd" fill="#B2E0E1" width="38.484" height="27.922"/>
				</g>
				<g>
					<rect x="1237.932" y="667.776" fill-rule="evenodd" clip-rule="evenodd" fill="#B2E0E1" width="38.481" height="27.922"/>
				</g>
				<g>
					<rect x="1302.95" y="667.776" fill-rule="evenodd" clip-rule="evenodd" fill="#B2E0E1" width="38.481" height="27.922"/>
				</g>
			</g>
			<g>
				<g>
					<rect x="1040.789" y="705.523" fill-rule="evenodd" clip-rule="evenodd" fill="#B2E0E1" width="20.368" height="27.916"/>
				</g>
				<g>
					<rect x="1110.448" y="705.523" fill-rule="evenodd" clip-rule="evenodd" fill="#B2E0E1" width="34.893" height="27.916"/>
				</g>
				<g>
					<rect x="1171.87" y="705.523" fill-rule="evenodd" clip-rule="evenodd" fill="#B2E0E1" width="38.484" height="27.916"/>
				</g>
				<g>
					<rect x="1237.932" y="705.523" fill-rule="evenodd" clip-rule="evenodd" fill="#B2E0E1" width="38.481" height="27.916"/>
				</g>
				<g>
					<rect x="1302.95" y="705.523" fill-rule="evenodd" clip-rule="evenodd" fill="#B2E0E1" width="38.481" height="27.916"/>
				</g>
			</g>
			<g>
				<g>
					<rect x="1040.789" y="744.811" fill-rule="evenodd" clip-rule="evenodd" fill="#B2E0E1" width="20.368" height="27.926"/>
				</g>
				<g>
					<rect x="1110.448" y="744.811" fill-rule="evenodd" clip-rule="evenodd" fill="#B2E0E1" width="34.893" height="27.926"/>
				</g>
				<g>
					<rect x="1171.87" y="744.811" fill-rule="evenodd" clip-rule="evenodd" fill="#B2E0E1" width="38.484" height="27.926"/>
				</g>
				<g>
					<rect x="1237.932" y="744.811" fill-rule="evenodd" clip-rule="evenodd" fill="#B2E0E1" width="38.481" height="27.926"/>
				</g>
				<g>
					<rect x="1302.95" y="744.811" fill-rule="evenodd" clip-rule="evenodd" fill="#B2E0E1" width="38.481" height="27.926"/>
				</g>
			</g>
		</g>
		<g>
			<g>
				<g>
					<g>
						<rect x="1298.923" y="688.456" fill-rule="evenodd" clip-rule="evenodd" fill="#76BCE8" width="46.535" height="7.242"/>
					</g>
					<g>
						<rect x="1298.923" y="726.715" fill-rule="evenodd" clip-rule="evenodd" fill="#76BCE8" width="46.535" height="6.725"/>
					</g>
					<g>
						<rect x="1298.923" y="765.493" fill-rule="evenodd" clip-rule="evenodd" fill="#76BCE8" width="46.535" height="7.243"/>
					</g>
				</g>
			</g>
			<g>
				<g>
					<g>
						<rect x="1233.903" y="688.456" fill-rule="evenodd" clip-rule="evenodd" fill="#76BCE8" width="46.536" height="7.242"/>
					</g>
					<g>
						<rect x="1233.903" y="726.715" fill-rule="evenodd" clip-rule="evenodd" fill="#76BCE8" width="46.536" height="6.725"/>
					</g>
					<g>
						<rect x="1233.903" y="765.493" fill-rule="evenodd" clip-rule="evenodd" fill="#76BCE8" width="46.536" height="7.243"/>
					</g>
				</g>
			</g>
			<g>
				<g>
					<g>
						<rect x="1167.842" y="688.456" fill-rule="evenodd" clip-rule="evenodd" fill="#76BCE8" width="46.534" height="7.242"/>
					</g>
					<g>
						<rect x="1167.842" y="726.715" fill-rule="evenodd" clip-rule="evenodd" fill="#76BCE8" width="46.534" height="6.725"/>
					</g>
					<g>
						<rect x="1167.842" y="765.493" fill-rule="evenodd" clip-rule="evenodd" fill="#76BCE8" width="46.534" height="7.243"/>
					</g>
				</g>
			</g>
			<g>
				<g>
					<g>
						<rect x="1110.448" y="688.456" fill-rule="evenodd" clip-rule="evenodd" fill="#76BCE8" width="38.917" height="7.242"/>
					</g>
					<g>
						<rect x="1110.448" y="726.715" fill-rule="evenodd" clip-rule="evenodd" fill="#76BCE8" width="38.917" height="6.725"/>
					</g>
					<g>
						<rect x="1110.448" y="765.493" fill-rule="evenodd" clip-rule="evenodd" fill="#76BCE8" width="38.917" height="7.243"/>
					</g>
				</g>
			</g>
			<g>
				<g>
					<g>
						<g>
							<rect x="1036.764" y="688.456" fill-rule="evenodd" clip-rule="evenodd" fill="#76BCE8" width="24.394" height="7.242"/>
						</g>
					</g>
					<g>
						<g>
							<rect x="1036.764" y="726.715" fill-rule="evenodd" clip-rule="evenodd" fill="#76BCE8" width="24.394" height="6.725"/>
						</g>
					</g>
					<g>
						<g>
							<rect x="1036.764" y="765.493" fill-rule="evenodd" clip-rule="evenodd" fill="#76BCE8" width="24.394" height="7.243"/>
						</g>
					</g>
				</g>
			</g>
		</g>
		<g>
			<g>
				<g>
					<rect x="1040.789" y="793.986" fill-rule="evenodd" clip-rule="evenodd" fill="#B2E0E1" width="20.368" height="27.918"/>
				</g>
				<g>
					<rect x="1110.448" y="793.986" fill-rule="evenodd" clip-rule="evenodd" fill="#B2E0E1" width="34.893" height="27.918"/>
				</g>
				<g>
					<rect x="1171.87" y="793.986" fill-rule="evenodd" clip-rule="evenodd" fill="#B2E0E1" width="38.484" height="27.918"/>
				</g>
				<g>
					<rect x="1237.932" y="793.986" fill-rule="evenodd" clip-rule="evenodd" fill="#B2E0E1" width="38.481" height="27.918"/>
				</g>
				<g>
					<rect x="1302.95" y="793.986" fill-rule="evenodd" clip-rule="evenodd" fill="#B2E0E1" width="38.481" height="27.918"/>
				</g>
			</g>
			<g>
				<g>
					<rect x="1040.789" y="831.729" fill-rule="evenodd" clip-rule="evenodd" fill="#B2E0E1" width="20.368" height="27.915"/>
				</g>
				<g>
					<rect x="1110.448" y="831.729" fill-rule="evenodd" clip-rule="evenodd" fill="#B2E0E1" width="34.893" height="27.915"/>
				</g>
				<g>
					<rect x="1171.87" y="831.729" fill-rule="evenodd" clip-rule="evenodd" fill="#B2E0E1" width="38.484" height="27.915"/>
				</g>
				<g>
					<rect x="1237.932" y="831.729" fill-rule="evenodd" clip-rule="evenodd" fill="#B2E0E1" width="38.481" height="27.915"/>
				</g>
				<g>
					<rect x="1302.95" y="831.729" fill-rule="evenodd" clip-rule="evenodd" fill="#B2E0E1" width="38.481" height="27.915"/>
				</g>
			</g>
			<g>
				<g>
					<polygon fill-rule="evenodd" clip-rule="evenodd" fill="#B2E0E1" points="1079.271,898.943 1040.789,898.943 1040.789,871.02 
						1061.157,871.02 1061.157,881.242 1079.271,881.242 					"/>
				</g>
				<g>
					<polygon fill-rule="evenodd" clip-rule="evenodd" fill="#B2E0E1" points="1145.341,898.943 1106.854,898.943 1106.854,881.242 
						1110.448,881.242 1110.448,871.02 1145.341,871.02 					"/>
				</g>
				<g>
					<rect x="1171.87" y="871.02" fill-rule="evenodd" clip-rule="evenodd" fill="#B2E0E1" width="38.484" height="27.924"/>
				</g>
				<g>
					<rect x="1237.932" y="871.02" fill-rule="evenodd" clip-rule="evenodd" fill="#B2E0E1" width="38.481" height="27.924"/>
				</g>
				<g>
					<rect x="1302.95" y="871.02" fill-rule="evenodd" clip-rule="evenodd" fill="#B2E0E1" width="38.481" height="27.924"/>
				</g>
			</g>
		</g>
		<g>
			<g>
				<g>
					<g>
						<rect x="1298.923" y="814.66" fill-rule="evenodd" clip-rule="evenodd" fill="#76BCE8" width="46.535" height="7.244"/>
					</g>
					<g>
						<rect x="1298.923" y="852.924" fill-rule="evenodd" clip-rule="evenodd" fill="#76BCE8" width="46.535" height="6.721"/>
					</g>
					<g>
						<rect x="1298.923" y="891.701" fill-rule="evenodd" clip-rule="evenodd" fill="#76BCE8" width="46.535" height="7.242"/>
					</g>
				</g>
			</g>
			<g>
				<g>
					<g>
						<rect x="1233.903" y="814.66" fill-rule="evenodd" clip-rule="evenodd" fill="#76BCE8" width="46.536" height="7.244"/>
					</g>
					<g>
						<rect x="1233.903" y="852.924" fill-rule="evenodd" clip-rule="evenodd" fill="#76BCE8" width="46.536" height="6.721"/>
					</g>
					<g>
						<rect x="1233.903" y="891.701" fill-rule="evenodd" clip-rule="evenodd" fill="#76BCE8" width="46.536" height="7.242"/>
					</g>
				</g>
			</g>
			<g>
				<g>
					<g>
						<rect x="1167.842" y="814.66" fill-rule="evenodd" clip-rule="evenodd" fill="#76BCE8" width="46.534" height="7.244"/>
					</g>
					<g>
						<rect x="1167.842" y="852.924" fill-rule="evenodd" clip-rule="evenodd" fill="#76BCE8" width="46.534" height="6.721"/>
					</g>
					<g>
						<rect x="1167.842" y="891.701" fill-rule="evenodd" clip-rule="evenodd" fill="#76BCE8" width="46.534" height="7.242"/>
					</g>
				</g>
			</g>
			<g>
				<g>
					<g>
						<rect x="1110.448" y="814.66" fill-rule="evenodd" clip-rule="evenodd" fill="#76BCE8" width="38.917" height="7.244"/>
					</g>
					<g>
						<rect x="1110.448" y="852.924" fill-rule="evenodd" clip-rule="evenodd" fill="#76BCE8" width="38.917" height="6.721"/>
					</g>
					<g>
						<rect x="1102.832" y="891.701" fill-rule="evenodd" clip-rule="evenodd" fill="#76BCE8" width="46.533" height="7.242"/>
					</g>
				</g>
			</g>
			<g>
				<g>
					<g>
						<g>
							<rect x="1036.764" y="814.66" fill-rule="evenodd" clip-rule="evenodd" fill="#76BCE8" width="24.394" height="7.244"/>
						</g>
					</g>
					<g>
						<g>
							<rect x="1036.764" y="852.924" fill-rule="evenodd" clip-rule="evenodd" fill="#76BCE8" width="24.394" height="6.721"/>
						</g>
					</g>
					<g>
						<g>
							<rect x="1036.764" y="891.701" fill-rule="evenodd" clip-rule="evenodd" fill="#76BCE8" width="46.534" height="7.242"/>
						</g>
					</g>
				</g>
			</g>
		</g>
	</g>
	<polygon fill-rule="evenodd" clip-rule="evenodd" fill="#69C1CA" points="1428.578,542.613 1428.578,1181.738 1646.66,1181.738 
		1646.66,778.816 1616.019,778.816 1616.019,542.613 	"/>
	<g>
		<g>
			<g>
				<g>
					<g>
						<rect x="1459.057" y="583.762" fill-rule="evenodd" clip-rule="evenodd" fill="#B2E0E1" width="42.37" height="17.799"/>
					</g>
					<g>
						<rect x="1459.057" y="626.74" fill-rule="evenodd" clip-rule="evenodd" fill="#B2E0E1" width="42.37" height="17.801"/>
					</g>
					<g>
						<rect x="1459.057" y="669.715" fill-rule="evenodd" clip-rule="evenodd" fill="#B2E0E1" width="42.37" height="17.804"/>
					</g>
					<g>
						<rect x="1459.057" y="712.689" fill-rule="evenodd" clip-rule="evenodd" fill="#B2E0E1" width="42.37" height="17.804"/>
					</g>
					<g>
						<rect x="1459.057" y="755.67" fill-rule="evenodd" clip-rule="evenodd" fill="#B2E0E1" width="42.37" height="17.803"/>
					</g>
					<g>
						<rect x="1459.057" y="798.649" fill-rule="evenodd" clip-rule="evenodd" fill="#76BCE8" width="42.37" height="17.804"/>
					</g>
					<g>
						<rect x="1459.057" y="841.625" fill-rule="evenodd" clip-rule="evenodd" fill="#76BCE8" width="42.37" height="17.801"/>
					</g>
					<g>
						<rect x="1459.057" y="884.604" fill-rule="evenodd" clip-rule="evenodd" fill="#76BCE8" width="42.37" height="17.805"/>
					</g>
					<g>
						<rect x="1459.057" y="927.582" fill-rule="evenodd" clip-rule="evenodd" fill="#76BCE8" width="42.37" height="17.799"/>
					</g>
				</g>
				<g>
					<g>
						<rect x="1519.554" y="583.762" fill-rule="evenodd" clip-rule="evenodd" fill="#B2E0E1" width="42.366" height="17.799"/>
					</g>
					<g>
						<rect x="1519.554" y="626.74" fill-rule="evenodd" clip-rule="evenodd" fill="#B2E0E1" width="42.366" height="17.801"/>
					</g>
					<g>
						<rect x="1519.554" y="669.715" fill-rule="evenodd" clip-rule="evenodd" fill="#B2E0E1" width="42.366" height="17.804"/>
					</g>
					<g>
						<rect x="1519.554" y="712.689" fill-rule="evenodd" clip-rule="evenodd" fill="#B2E0E1" width="42.366" height="17.804"/>
					</g>
					<g>
						<rect x="1519.554" y="755.67" fill-rule="evenodd" clip-rule="evenodd" fill="#B2E0E1" width="42.366" height="17.803"/>
					</g>
					<g>
						<rect x="1519.554" y="798.649" fill-rule="evenodd" clip-rule="evenodd" fill="#76BCE8" width="42.366" height="17.804"/>
					</g>
					<g>
						<rect x="1519.554" y="841.625" fill-rule="evenodd" clip-rule="evenodd" fill="#76BCE8" width="42.366" height="17.801"/>
					</g>
					<g>
						<rect x="1519.554" y="884.604" fill-rule="evenodd" clip-rule="evenodd" fill="#76BCE8" width="42.366" height="17.805"/>
					</g>
					<g>
						<rect x="1519.554" y="927.582" fill-rule="evenodd" clip-rule="evenodd" fill="#76BCE8" width="42.366" height="17.799"/>
					</g>
				</g>
				<g>
					<g>
						<rect x="1580.046" y="583.762" fill-rule="evenodd" clip-rule="evenodd" fill="#B2E0E1" width="35.973" height="17.799"/>
					</g>
					<g>
						<rect x="1580.046" y="626.74" fill-rule="evenodd" clip-rule="evenodd" fill="#B2E0E1" width="35.973" height="17.801"/>
					</g>
					<g>
						<rect x="1580.046" y="669.715" fill-rule="evenodd" clip-rule="evenodd" fill="#B2E0E1" width="35.973" height="17.804"/>
					</g>
					<g>
						<rect x="1580.046" y="712.689" fill-rule="evenodd" clip-rule="evenodd" fill="#B2E0E1" width="35.973" height="17.804"/>
					</g>
					<g>
						<rect x="1580.046" y="755.67" fill-rule="evenodd" clip-rule="evenodd" fill="#B2E0E1" width="35.973" height="17.803"/>
					</g>
					<g>
						<rect x="1580.046" y="798.649" fill-rule="evenodd" clip-rule="evenodd" fill="#B2E0E1" width="42.37" height="17.804"/>
					</g>
					<g>
						<rect x="1580.046" y="841.625" fill-rule="evenodd" clip-rule="evenodd" fill="#B2E0E1" width="42.37" height="17.801"/>
					</g>
					<g>
						<rect x="1580.046" y="884.604" fill-rule="evenodd" clip-rule="evenodd" fill="#B2E0E1" width="42.37" height="17.805"/>
					</g>
					<g>
						<rect x="1580.046" y="927.582" fill-rule="evenodd" clip-rule="evenodd" fill="#B2E0E1" width="42.37" height="17.799"/>
					</g>
				</g>
			</g>
			<g>
				<g>
					<g>
						<g>
							<rect x="1459.057" y="583.762" fill-rule="evenodd" clip-rule="evenodd" fill="#76BCE8" width="10.38" height="17.799"/>
						</g>
						<g>
							<rect x="1459.057" y="626.74" fill-rule="evenodd" clip-rule="evenodd" fill="#76BCE8" width="10.38" height="17.801"/>
						</g>
						<g>
							<rect x="1459.057" y="669.715" fill-rule="evenodd" clip-rule="evenodd" fill="#76BCE8" width="10.38" height="17.804"/>
						</g>
						<g>
							<rect x="1459.057" y="712.689" fill-rule="evenodd" clip-rule="evenodd" fill="#76BCE8" width="10.38" height="17.804"/>
						</g>
						<g>
							<rect x="1459.057" y="755.67" fill-rule="evenodd" clip-rule="evenodd" fill="#76BCE8" width="10.38" height="17.803"/>
						</g>
						<g>
							<rect x="1459.057" y="798.649" fill-rule="evenodd" clip-rule="evenodd" fill="#76BCE8" width="10.38" height="17.804"/>
						</g>
						<g>
							<rect x="1459.057" y="841.625" fill-rule="evenodd" clip-rule="evenodd" fill="#76BCE8" width="10.38" height="17.801"/>
						</g>
						<g>
							<rect x="1459.057" y="884.604" fill-rule="evenodd" clip-rule="evenodd" fill="#76BCE8" width="10.38" height="17.805"/>
						</g>
						<g>
							<rect x="1459.057" y="927.582" fill-rule="evenodd" clip-rule="evenodd" fill="#76BCE8" width="10.38" height="17.799"/>
						</g>
					</g>
					<g>
						<g>
							<rect x="1519.554" y="583.762" fill-rule="evenodd" clip-rule="evenodd" fill="#76BCE8" width="10.285" height="17.799"/>
						</g>
						<g>
							<rect x="1519.554" y="626.74" fill-rule="evenodd" clip-rule="evenodd" fill="#76BCE8" width="10.285" height="17.801"/>
						</g>
						<g>
							<rect x="1519.554" y="669.715" fill-rule="evenodd" clip-rule="evenodd" fill="#76BCE8" width="10.285" height="17.804"/>
						</g>
						<g>
							<rect x="1519.554" y="712.689" fill-rule="evenodd" clip-rule="evenodd" fill="#76BCE8" width="10.285" height="17.804"/>
						</g>
						<g>
							<rect x="1519.554" y="755.67" fill-rule="evenodd" clip-rule="evenodd" fill="#76BCE8" width="10.285" height="17.803"/>
						</g>
						<g>
							<rect x="1519.554" y="798.649" fill-rule="evenodd" clip-rule="evenodd" fill="#76BCE8" width="10.285" height="17.804"/>
						</g>
						<g>
							<rect x="1519.554" y="841.625" fill-rule="evenodd" clip-rule="evenodd" fill="#76BCE8" width="10.285" height="17.801"/>
						</g>
						<g>
							<rect x="1519.554" y="884.604" fill-rule="evenodd" clip-rule="evenodd" fill="#76BCE8" width="10.285" height="17.805"/>
						</g>
						<g>
							<rect x="1519.554" y="927.582" fill-rule="evenodd" clip-rule="evenodd" fill="#76BCE8" width="10.285" height="17.799"/>
						</g>
					</g>
					<g>
						<g>
							<rect x="1580.046" y="583.762" fill-rule="evenodd" clip-rule="evenodd" fill="#76BCE8" width="9.639" height="17.799"/>
						</g>
						<g>
							<rect x="1580.046" y="626.74" fill-rule="evenodd" clip-rule="evenodd" fill="#76BCE8" width="9.639" height="17.801"/>
						</g>
						<g>
							<rect x="1580.046" y="669.715" fill-rule="evenodd" clip-rule="evenodd" fill="#76BCE8" width="9.639" height="17.804"/>
						</g>
						<g>
							<rect x="1580.046" y="712.689" fill-rule="evenodd" clip-rule="evenodd" fill="#76BCE8" width="9.639" height="17.804"/>
						</g>
						<g>
							<rect x="1580.046" y="755.67" fill-rule="evenodd" clip-rule="evenodd" fill="#76BCE8" width="9.639" height="17.803"/>
						</g>
						<g>
							<rect x="1580.046" y="798.649" fill-rule="evenodd" clip-rule="evenodd" fill="#76BCE8" width="9.639" height="17.804"/>
						</g>
						<g>
							<rect x="1580.046" y="841.625" fill-rule="evenodd" clip-rule="evenodd" fill="#76BCE8" width="9.639" height="17.801"/>
						</g>
						<g>
							<rect x="1580.046" y="884.604" fill-rule="evenodd" clip-rule="evenodd" fill="#76BCE8" width="9.639" height="17.805"/>
						</g>
						<g>
							<rect x="1580.046" y="927.582" fill-rule="evenodd" clip-rule="evenodd" fill="#76BCE8" width="9.639" height="17.799"/>
						</g>
					</g>
				</g>
			</g>
		</g>
	</g>
	
		<rect x="1729.199" y="777.979" opacity="0.5" fill-rule="evenodd" clip-rule="evenodd" fill="#6FBDC5" width="255.924" height="403.759"/>
	<g>
		<g>
			<g>
				<g>
					<rect x="1780.508" y="837.842" fill-rule="evenodd" clip-rule="evenodd" fill="#B2E0E1" width="31.465" height="60.702"/>
				</g>
				<g>
					<rect x="1780.508" y="927.806" fill-rule="evenodd" clip-rule="evenodd" fill="#B2E0E1" width="31.465" height="60.698"/>
				</g>
				<g>
					<rect x="1780.508" y="1017.76" fill-rule="evenodd" clip-rule="evenodd" fill="#B2E0E1" width="31.465" height="60.696"/>
				</g>
				<g>
					<rect x="1780.508" y="1107.718" fill-rule="evenodd" clip-rule="evenodd" fill="#B2E0E1" width="31.465" height="60.699"/>
				</g>
			</g>
			<g>
				<g>
					<rect x="1845.329" y="837.849" fill-rule="evenodd" clip-rule="evenodd" fill="#B2E0E1" width="31.465" height="60.695"/>
				</g>
				<g>
					<rect x="1845.329" y="927.806" fill-rule="evenodd" clip-rule="evenodd" fill="#B2E0E1" width="31.465" height="60.698"/>
				</g>
				<g>
					<rect x="1845.329" y="1017.76" fill-rule="evenodd" clip-rule="evenodd" fill="#B2E0E1" width="31.465" height="60.696"/>
				</g>
				<g>
					<rect x="1845.329" y="1107.721" fill-rule="evenodd" clip-rule="evenodd" fill="#B2E0E1" width="31.465" height="60.7"/>
				</g>
			</g>
			<g>
				<g>
					<rect x="1910.156" y="837.849" fill-rule="evenodd" clip-rule="evenodd" fill="#B2E0E1" width="31.461" height="60.695"/>
				</g>
				<g>
					<rect x="1910.156" y="927.806" fill-rule="evenodd" clip-rule="evenodd" fill="#B2E0E1" width="31.461" height="60.698"/>
				</g>
				<g>
					<rect x="1910.156" y="1017.76" fill-rule="evenodd" clip-rule="evenodd" fill="#B2E0E1" width="31.461" height="60.696"/>
				</g>
				<g>
					<rect x="1910.156" y="1107.721" fill-rule="evenodd" clip-rule="evenodd" fill="#B2E0E1" width="31.461" height="60.7"/>
				</g>
			</g>
		</g>
	</g>
	<polygon opacity="0.5" fill-rule="evenodd" clip-rule="evenodd" fill="#4DA8B1" points="992.838,861.545 741.344,861.545 
		741.344,883.523 747.287,883.523 747.287,1181.738 984.729,1181.738 984.729,883.523 992.838,883.523 	"/>
	<g>
		<g>
			<rect x="790.257" y="942.276" fill-rule="evenodd" clip-rule="evenodd" fill="#B2E0E1" width="147.04" height="27.846"/>
		</g>
		<g>
			<rect x="790.257" y="983.547" fill-rule="evenodd" clip-rule="evenodd" fill="#B2E0E1" width="147.04" height="27.846"/>
		</g>
		<g>
			<rect x="790.257" y="1024.819" fill-rule="evenodd" clip-rule="evenodd" fill="#B2E0E1" width="147.04" height="27.843"/>
		</g>
		<g>
			<rect x="790.257" y="1066.084" fill-rule="evenodd" clip-rule="evenodd" fill="#B2E0E1" width="147.04" height="27.849"/>
		</g>
		<g>
			<rect x="790.257" y="1148.63" fill-rule="evenodd" clip-rule="evenodd" fill="#B2E0E1" width="147.04" height="27.846"/>
		</g>
		<g>
			<rect x="790.257" y="1107.359" fill-rule="evenodd" clip-rule="evenodd" fill="#B2E0E1" width="147.04" height="27.848"/>
		</g>
		<g>
			<rect x="783.148" y="938.84" fill-rule="evenodd" clip-rule="evenodd" fill="#B2E0E1" width="7.108" height="242.093"/>
		</g>
		<g>
			<rect x="933.746" y="939.646" fill-rule="evenodd" clip-rule="evenodd" fill="#B2E0E1" width="7.109" height="242.093"/>
		</g>
	</g>
	<polygon opacity="0.75" fill-rule="evenodd" clip-rule="evenodd" fill="#8EC9EE" points="1201.642,1126.651 849.482,1126.651 
		849.482,1148.63 858.023,1148.63 858.023,1181.738 1188.904,1181.738 1188.904,1148.63 1201.642,1148.63 	"/>
	<polygon opacity="0.5" fill-rule="evenodd" clip-rule="evenodd" fill="#8EC9EE" points="1593.866,998.605 1593.866,797.945 
		1366.789,797.945 1366.789,998.605 1273.535,998.605 1273.535,1181.738 1687.119,1181.738 1687.119,998.605 	"/>
	<g>
		<g>
			<g>
				<rect x="1322.236" y="1058.176" fill-rule="evenodd" clip-rule="evenodd" fill="#B2E0E1" width="316.182" height="42.534"/>
			</g>
			<g>
				<rect x="1322.236" y="1121.21" fill-rule="evenodd" clip-rule="evenodd" fill="#B2E0E1" width="316.182" height="42.534"/>
			</g>
			<g>
				<g>
					<rect x="1407.89" y="829.996" fill-rule="evenodd" clip-rule="evenodd" fill="#B2E0E1" width="144.873" height="42.537"/>
				</g>
				<g>
					<rect x="1407.89" y="893.033" fill-rule="evenodd" clip-rule="evenodd" fill="#B2E0E1" width="144.873" height="42.538"/>
				</g>
				<g>
					<rect x="1407.89" y="956.073" fill-rule="evenodd" clip-rule="evenodd" fill="#B2E0E1" width="144.873" height="42.532"/>
				</g>
			</g>
			<g>
				<rect x="1396.673" y="994.082" fill-rule="evenodd" clip-rule="evenodd" fill="#B2E0E1" width="168.007" height="9.049"/>
			</g>
			<g>
				<rect x="1396.673" y="931.045" fill-rule="evenodd" clip-rule="evenodd" fill="#B2E0E1" width="168.007" height="9.053"/>
			</g>
			<g>
				<rect x="1396.673" y="868.008" fill-rule="evenodd" clip-rule="evenodd" fill="#B2E0E1" width="168.007" height="9.049"/>
			</g>
		</g>
	</g>
	
		<rect x="1550.243" y="1046.279" opacity="0.75" fill-rule="evenodd" clip-rule="evenodd" fill="#8EC9EE" width="194.433" height="135.459"/>
</g>
<g>
	<path fill-rule="evenodd" clip-rule="evenodd" fill="#FFFFFF" d="M1206.373,331.854c0,14.643-11.868,26.508-26.505,26.508H657.074
		c-14.641,0-26.508-11.863-26.508-26.508l0,0c0-14.642,11.867-26.506,26.508-26.506h522.794c14.637,0,26.502,11.865,26.502,26.506
		H1206.373z"/>
	<path fill-rule="evenodd" clip-rule="evenodd" fill="#FFFFFF" d="M1114.029,305.347c0,14.642-11.868,26.508-26.505,26.508H905.547
		c-14.639,0-26.506-11.865-26.506-26.508l0,0c0-14.643,11.867-26.507,26.506-26.507h181.978
		C1102.161,278.84,1114.028,290.705,1114.029,305.347L1114.029,305.347z"/>
	<path fill-rule="evenodd" clip-rule="evenodd" fill="#FFFFFF" d="M1080.688,268.672c0,14.642-11.868,26.508-26.507,26.508H998.16
		c-14.639,0-26.506-11.865-26.506-26.508h0.002c0-14.643,11.865-26.507,26.504-26.507h56.022c14.638,0,26.503,11.865,26.503,26.507
		H1080.688z"/>
	<path fill-rule="evenodd" clip-rule="evenodd" fill="#FFFFFF" d="M831.889,311.988c0,14.643-11.869,26.508-26.506,26.508h-56.021
		c-14.639,0-26.508-11.865-26.508-26.508h0.002c0-14.643,11.867-26.506,26.506-26.506h56.021
		c14.637-0.001,26.504,11.865,26.504,26.506H831.889z"/>
	<path fill-rule="evenodd" clip-rule="evenodd" fill="#FFFFFF" d="M1028.083,367.787c0,14.642-11.869,26.508-26.506,26.508H819.602
		c-14.639,0-26.508-11.865-26.508-26.508h0.002c0-14.643,11.867-26.507,26.506-26.507h181.978
		C1016.216,341.279,1028.082,353.145,1028.083,367.787L1028.083,367.787z"/>
</g>
<g>
	<polygon fill-rule="evenodd" clip-rule="evenodd" fill="#409EA8" points="1090.683,1072.331 1076.452,1072.331 1079.081,900.648 
		1087.573,900.648 	"/>
	<polygon fill-rule="evenodd" clip-rule="evenodd" fill="#409EA8" points="1087.573,900.648 1082.82,900.648 1082.82,1072.331 
		1090.683,1072.331 	"/>
	<path fill-rule="evenodd" clip-rule="evenodd" fill="#409EA8" d="M1087.483,909.155h-8.367c-1.603,0-2.903-1.296-2.903-2.899
		l0.001-9.512c0-1.601,1.299-2.898,2.901-2.898l8.368-0.001c1.603,0,2.9,1.299,2.9,2.901v9.51
		C1090.384,907.859,1089.086,909.156,1087.483,909.155z"/>
	<path fill-rule="evenodd" clip-rule="evenodd" fill="#409EA8" d="M1087.483,893.845h-4.667v15.311h4.667
		c1.603,0,2.9-1.296,2.9-2.899v-9.512C1090.384,895.144,1089.086,893.846,1087.483,893.845z"/>
	<path fill-rule="evenodd" clip-rule="evenodd" fill="#409EA8" d="M1074.702,904.722l-70.27,42.194c0,0,2.066,2.559,4.903,1.581
		c4.357-1.503,65.855-29.132,65.855-29.132c0.001,0,1.042-12.862,5.821-14.963c3.602-1.584,0.7-3.891,0.7-3.891L1074.702,904.722z"
		/>
	<path fill-rule="evenodd" clip-rule="evenodd" fill="#409EA8" d="M1091.126,906.525l76.617,29.111c0,0,0.731-3.21-1.793-4.832
		c-3.875-2.496-63.661-32.738-63.661-32.738s-10.715,6.15-15.321,3.697c-3.472-1.85-3.487,1.856-3.487,1.856L1091.126,906.525z"/>
	<path fill-rule="evenodd" clip-rule="evenodd" fill="#409EA8" d="M1084.622,894.36l-9.503-79.907c0,0-3.181,0.84-3.452,3.825
		c-0.416,4.591,0.802,69.923,0.802,69.923c0.001-0.002,9.896,6.83,9.858,12.049c-0.031,3.934,3.259,2.232,3.259,2.232
		L1084.622,894.36z"/>
	<path fill-rule="evenodd" clip-rule="evenodd" fill="#409EA8" d="M1077.314,902.181c-0.39-3.265,1.94-6.224,5.207-6.612
		c3.266-0.391,6.224,1.942,6.609,5.207c0.392,3.264-1.939,6.226-5.206,6.613C1080.662,907.773,1077.701,905.443,1077.314,902.181z"
		/>
	<path fill-rule="evenodd" clip-rule="evenodd" fill="#409EA8" d="M1080.113,901.844c-0.202-1.713,1.021-3.27,2.74-3.475
		c1.717-0.207,3.276,1.021,3.479,2.737c0.206,1.718-1.021,3.276-2.737,3.481C1081.873,904.79,1080.316,903.564,1080.113,901.844z"/>
</g>
<g>
	<polygon fill-rule="evenodd" clip-rule="evenodd" fill="#409EA8" points="979.135,1067.495 959.104,1067.495 962.803,825.839 
		974.757,825.839 	"/>
	<polygon fill-rule="evenodd" clip-rule="evenodd" fill="#409EA8" points="974.757,825.839 968.067,825.839 968.067,1067.495 
		979.135,1067.495 	"/>
	<path fill-rule="evenodd" clip-rule="evenodd" fill="#409EA8" d="M974.631,837.813h-11.777c-2.256,0-4.087-1.825-4.087-4.08
		l0.001-13.389c0-2.254,1.829-4.08,4.084-4.08l11.779-0.002c2.255,0,4.082,1.828,4.082,4.084l0.001,13.385
		C978.714,835.987,976.886,837.814,974.631,837.813z"/>
	<path fill-rule="evenodd" clip-rule="evenodd" fill="#409EA8" d="M974.631,816.262h-6.569v21.551h6.569
		c2.255,0,4.082-1.825,4.082-4.08l0.001-13.389C978.714,818.09,976.886,816.264,974.631,816.262z"/>
	<path fill-rule="evenodd" clip-rule="evenodd" fill="#409EA8" d="M956.641,831.572l-98.91,59.393c0,0,2.908,3.601,6.9,2.225
		c6.135-2.115,92.697-41.006,92.697-41.006c0.002,0,1.467-18.105,8.193-21.061c5.07-2.231,0.987-5.477,0.987-5.477L956.641,831.572z
		"/>
	<path fill-rule="evenodd" clip-rule="evenodd" fill="#409EA8" d="M979.758,834.111l107.846,40.975c0,0,1.029-4.518-2.524-6.801
		c-5.454-3.512-89.608-46.081-89.608-46.081c0.001,0-15.082,8.657-21.566,5.204c-4.887-2.604-4.908,2.613-4.908,2.613
		L979.758,834.111z"/>
	<path fill-rule="evenodd" clip-rule="evenodd" fill="#409EA8" d="M970.603,816.988l-13.376-112.477c0,0-4.477,1.182-4.859,5.385
		c-0.585,6.463,1.129,98.42,1.129,98.42c0.002,0,13.931,9.615,13.877,16.962c-0.045,5.535,4.588,3.142,4.588,3.142L970.603,816.988z
		"/>
	<path fill-rule="evenodd" clip-rule="evenodd" fill="#409EA8" d="M960.318,827.995c-0.55-4.595,2.73-8.761,7.327-9.308
		c4.598-0.55,8.761,2.734,9.304,7.33c0.552,4.593-2.73,8.762-7.328,9.309C965.028,835.868,960.861,832.588,960.318,827.995z"/>
	<path fill-rule="evenodd" clip-rule="evenodd" fill="#409EA8" d="M964.256,827.521c-0.284-2.412,1.438-4.602,3.858-4.893
		c2.417-0.29,4.611,1.438,4.897,3.854c0.289,2.42-1.438,4.612-3.854,4.9C966.734,831.668,964.543,829.943,964.256,827.521z"/>
</g>
<g>
	<path fill-rule="evenodd" clip-rule="evenodd" fill="#8DC63F" d="M649.146,1010.154c2.4-9.189,3.686-18.828,3.686-28.77
		c0-62.717-50.844-113.56-113.561-113.56c-39.252,0-73.851,19.917-94.246,50.194c-6.223-1.369-12.682-2.112-19.314-2.112
		c-49.439,0-89.52,40.079-89.52,89.52c0,1.586,0.045,3.162,0.126,4.728H649.146z"/>
	<path fill-rule="evenodd" clip-rule="evenodd" fill="#A1CD3A" d="M539.264,867.833c-39.252,0-73.85,19.917-94.246,50.194
		c-6.223-1.369-12.679-2.112-19.314-2.112c-42.82,0-78.6,30.075-87.416,70.25c19.422,12.128,42.635,19.204,67.594,19.204
		c22.498,0,43.571-5.759,61.736-15.771c18.165,10.013,39.238,15.771,61.736,15.771c50.76,0,94.346-29.184,113.323-70.887
		C624.818,895.18,585.248,867.833,539.264,867.833z"/>
</g>
<g>
	<rect x="1265.654" y="1019.904" fill-rule="evenodd" clip-rule="evenodd" fill="#84D1EF" width="15.445" height="10.041"/>
	<path fill-rule="evenodd" clip-rule="evenodd" fill="#A4DDF1" d="M1292.699,1056.442c-7.334-0.806-14.685-1.578-22.024-2.31v-1.16
		h22.024V1056.442z"/>
	<path fill-rule="evenodd" clip-rule="evenodd" fill="#BAE5F7" d="M1270.675,1054.133c-1.674-0.167-3.346-0.332-5.021-0.495v-0.665
		h5.021V1054.133z"/>
	<rect x="1265.654" y="1036.912" fill-rule="evenodd" clip-rule="evenodd" fill="#BAE5F7" width="27.045" height="10.04"/>
	<rect x="1265.654" y="1003.843" fill-rule="evenodd" clip-rule="evenodd" fill="#BAE5F7" width="27.045" height="10.041"/>
	<path fill-rule="evenodd" clip-rule="evenodd" fill="#127AA9" d="M1344.428,1062.688c-13.982-1.829-27.985-3.554-41.996-5.154
		v-4.561h-9.732v-6.021h38.529v-10.04h-31.758h-6.771v-23.028h51.729V1062.688z"/>
	<path fill-rule="evenodd" clip-rule="evenodd" fill="#2285B1" d="M1302.432,1057.533c-3.246-0.369-6.484-0.732-9.732-1.091v-3.47
		h9.732V1057.533z"/>
	<polygon fill-rule="evenodd" clip-rule="evenodd" fill="#2285B1" points="1331.229,1046.952 1292.699,1046.952 1299.471,1046.952 
		1299.471,1036.912 1331.229,1036.912 	"/>
	<rect x="1292.699" y="1036.912" fill-rule="evenodd" clip-rule="evenodd" fill="#2588B0" width="6.771" height="10.04"/>
	<polygon fill-rule="evenodd" clip-rule="evenodd" fill="#2285B1" points="1344.428,1013.884 1292.699,1013.884 1330.886,1013.884 
		1330.886,1003.843 1344.428,1003.843 	"/>
	<rect x="1292.699" y="1003.843" fill-rule="evenodd" clip-rule="evenodd" fill="#2588B0" width="38.187" height="10.041"/>
	<path fill-rule="evenodd" clip-rule="evenodd" fill="#3197C1" d="M1262.282,1053.312c-1.195-0.114-2.378-0.226-3.573-0.339h6.945
		h-3.372V1053.312z"/>
	<polygon fill-rule="evenodd" clip-rule="evenodd" fill="#3197C1" points="1262.282,1046.952 1230.525,1046.952 1230.525,1036.912 
		1265.654,1036.912 1262.282,1036.912 	"/>
	<rect x="1251.418" y="1019.904" fill-rule="evenodd" clip-rule="evenodd" fill="#3197C1" width="14.236" height="10.041"/>
	<polygon fill-rule="evenodd" clip-rule="evenodd" fill="#3197C1" points="1262.282,1013.884 1230.525,1013.884 1230.525,1003.843 
		1265.654,1003.843 1262.282,1003.843 	"/>
	<path fill-rule="evenodd" clip-rule="evenodd" fill="#4DA4C7" d="M1265.654,1053.638c-1.124-0.109-2.247-0.219-3.372-0.326v-0.339
		h3.372V1053.638z"/>
	<rect x="1262.282" y="1036.912" fill-rule="evenodd" clip-rule="evenodd" fill="#4DA4C7" width="3.372" height="10.04"/>
	<rect x="1262.282" y="1003.843" fill-rule="evenodd" clip-rule="evenodd" fill="#4DA4C7" width="3.372" height="10.041"/>
	<path fill-rule="evenodd" clip-rule="evenodd" fill="#613A27" d="M1330.27,1042.213c-17.181,29.149-34.36,58.301-51.542,87.451
		c3.693,0,7.387,0,11.082,0c-17.182-29.15-34.362-58.302-51.543-87.451c-4.191-7.109-15.289-0.66-11.081,6.478
		c17.181,29.15,34.36,58.3,51.542,87.45c2.45,4.158,8.629,4.158,11.082,0c17.18-29.15,34.36-58.3,51.542-87.45
		C1345.553,1041.56,1334.464,1035.095,1330.27,1042.213z"/>
	<circle fill-rule="evenodd" clip-rule="evenodd" fill="#8DC63F" cx="1232.725" cy="977.568" r="103.085"/>
	<path fill-rule="evenodd" clip-rule="evenodd" fill="#B7D436" d="M1331.173,961.066c0,50.656-41.064,77.494-91.72,77.494
		c-50.656,0-91.721-26.838-91.721-77.492c0.001-50.658,41.064-91.721,91.721-91.721
		C1290.108,869.347,1331.173,910.41,1331.173,961.066z"/>
	<circle fill-rule="evenodd" clip-rule="evenodd" fill="#8DC63F" cx="1331.479" cy="954.271" r="126.381"/>
	<path fill-rule="evenodd" clip-rule="evenodd" fill="#B7D436" d="M1439.769,952.613c0,68.885-55.899,105.38-124.856,105.38
		c-68.955,0-124.855-36.495-124.855-105.379s55.9-124.724,124.855-124.724C1383.869,827.891,1439.769,883.73,1439.769,952.613z"/>
	<path fill-rule="evenodd" clip-rule="evenodd" fill="#B7D436" d="M1335.917,1028.376c-19.914,12.503-27.547,36.192-27.547,36.192
		s24.652,3.422,44.567-9.08c19.915-12.503,27.549-36.193,27.549-36.193S1355.832,1015.874,1335.917,1028.376z"/>
	<path fill-rule="evenodd" clip-rule="evenodd" fill="#B7D436" d="M1172.829,976.141c11.852,18.202,9.07,41.023,9.07,41.023
		s-21.997-6.688-33.85-24.889c-11.851-18.2-9.069-41.023-9.069-41.023S1160.978,957.939,1172.829,976.141z"/>
	<path fill-rule="evenodd" clip-rule="evenodd" fill="#B7D436" d="M1167.245,1000.677c21.294,4.278,35.645,22.241,35.645,22.241
		c0-0.001-20.175,11.027-41.469,6.75c-21.294-4.279-35.645-22.24-35.645-22.24S1145.951,996.4,1167.245,1000.677z"/>
	<path fill-rule="evenodd" clip-rule="evenodd" fill="#613A27" d="M1264.068,1096.223c-8.15-0.646-16.299-1.293-24.447-1.939
		c-3.088-0.246-3.072,4.568,0,4.813c8.148,0.646,16.297,1.293,24.447,1.94C1267.154,1101.28,1267.141,1096.468,1264.068,1096.223z"
		/>
	<path fill-rule="evenodd" clip-rule="evenodd" fill="#613A27" d="M1285.888,1135.673c9.164-6.663,18.327-13.328,27.492-19.992
		c3.308-2.404,0.109-7.975-3.239-5.54c-9.164,6.665-18.328,13.327-27.491,19.992
		C1279.341,1132.537,1282.54,1138.107,1285.888,1135.673z"/>
	<path fill-rule="evenodd" clip-rule="evenodd" fill="#613A27" d="M1284.956,1175.887L1284.956,1175.887
		c-5.881,0-10.648-4.768-10.648-10.648v-34.684c0-5.881,4.768-10.648,10.648-10.648s10.648,4.768,10.648,10.648v34.684
		C1295.604,1171.119,1290.837,1175.887,1284.956,1175.887z"/>
</g>
<path fill-rule="evenodd" clip-rule="evenodd" fill="#FFFFFF" d="M1697.664,491.947c0,11.512-9.332,20.84-20.838,20.84h-197.103
	c-11.508,0-20.839-9.326-20.839-20.84h0.001c0-11.51,9.33-20.838,20.838-20.838h197.103c11.509,0,20.836,9.328,20.836,20.838
	H1697.664z"/>
<path fill-rule="evenodd" clip-rule="evenodd" fill="#FFFFFF" d="M1730.437,467.551c0,11.512-9.33,20.84-20.838,20.84h-143.062
	c-11.509,0-20.839-9.328-20.839-20.84h0.001c0-11.512,9.329-20.838,20.838-20.838H1709.6
	C1721.106,446.711,1730.436,456.039,1730.437,467.551L1730.437,467.551z"/>
<path fill-rule="evenodd" clip-rule="evenodd" fill="#FFFFFF" d="M1851.428,490.424c0,11.512-9.331,20.84-20.838,20.84h-22.021
	c-11.509,0-20.839-9.328-20.839-20.84h0.002c0-11.512,9.328-20.838,20.837-20.838h22.022
	C1842.098,469.584,1851.427,478.914,1851.428,490.424L1851.428,490.424z"/>
<path fill-rule="evenodd" clip-rule="evenodd" fill="#FFFFFF" d="M1708.031,440.752c0,11.51-9.331,20.84-20.838,20.84h-44.042
	c-11.509,0-20.839-9.328-20.839-20.84h0.001c0-11.512,9.329-20.84,20.838-20.84h44.043
	C1698.701,419.912,1708.03,429.24,1708.031,440.752L1708.031,440.752z"/>
<path fill-rule="evenodd" clip-rule="evenodd" fill="#FFFFFF" d="M1582.757,520.197c0,11.512-9.33,20.84-20.838,20.84h-143.062
	c-11.509,0-20.839-9.328-20.839-20.84h0.001c0-11.512,9.329-20.838,20.838-20.838h143.063
	C1573.427,499.357,1582.756,508.688,1582.757,520.197L1582.757,520.197z"/>
<path fill-rule="evenodd" clip-rule="evenodd" fill="#FFFFFF" d="M2044.023,692.35c1.73,0,4.841-0.529,9.144,0.049
	c4.455,0.6,5.319,2.594,5.319,2.594s-0.965-0.268-2.26,0.596c-0.577,0.389-1.067,1.095-1.183,1.598
	c-0.044,0.201-0.015,0.898,0.284,0.4c0.3-0.501,2.26-0.101,2.809-0.053c0.55,0.053,7.331,0.85,9.527-0.247l1.695-0.201
	c0,0,0.696-1.146-1.298-1.497c0.849-0.549,3.79-4.455,6.782-3.654c2.994,0.797,6.534,1.211,6.534,1.211s0.747-0.445,0.249-0.647
	c-0.499-0.198-4.986-3.324-7.381-3.622c-2.395-0.301-6.75,3.557-9.242,4.652c-1.398,0.668-3.027-0.23-3.027-0.23
	s-4.786-4.092-6.184-4.288c-1.396-0.201-11.163,2.635-11.361,2.233C2043.635,691.342,2043.683,692.24,2044.023,692.35z"/>
<path fill-rule="evenodd" clip-rule="evenodd" fill="#FFFFFF" d="M1981.258,702.414c1.728,0,4.838-0.525,9.141,0.051
	c4.458,0.599,5.321,2.594,5.321,2.594s-0.965-0.266-2.262,0.598c-0.577,0.383-1.064,1.092-1.181,1.596
	c-0.044,0.201-0.017,0.896,0.282,0.398c0.3-0.497,2.262-0.1,2.81-0.049c0.55,0.049,7.333,0.847,9.525-0.25l1.696-0.198
	c0,0,0.698-1.149-1.296-1.497c0.847-0.549,3.79-4.455,6.78-3.654c2.994,0.794,6.533,1.211,6.533,1.211s0.749-0.451,0.25-0.647
	c-0.498-0.201-4.987-3.326-7.381-3.626c-2.393-0.299-6.75,3.558-9.242,4.656c-1.396,0.662-3.024-0.232-3.024-0.232
	s-4.789-4.09-6.185-4.291c-1.396-0.199-11.162,2.635-11.36,2.237C1980.865,701.407,1980.917,702.306,1981.258,702.414z"/>
<path fill-rule="evenodd" clip-rule="evenodd" fill="#FFFFFF" d="M1926.335,702.281c1.296,0,3.628-0.398,6.856,0.037
	c3.342,0.448,3.989,1.945,3.989,1.945s-0.724-0.201-1.695,0.446c-0.433,0.289-0.8,0.819-0.886,1.197
	c-0.035,0.151-0.012,0.674,0.213,0.3c0.224-0.374,1.695-0.074,2.105-0.035c0.412,0.035,5.5,0.633,7.145-0.189l1.272-0.149
	c0,0,0.522-0.858-0.974-1.123c0.638-0.41,2.843-3.341,5.088-2.741c2.245,0.597,4.898,0.91,4.898,0.91s0.56-0.338,0.187-0.484
	c-0.372-0.152-3.738-2.496-5.533-2.719c-1.797-0.226-5.063,2.666-6.933,3.488c-1.049,0.501-2.271-0.172-2.271-0.172
	s-3.59-3.068-4.636-3.219c-1.048-0.149-8.374,1.978-8.523,1.678C1926.04,701.525,1926.077,702.199,1926.335,702.281z"/>
<path fill-rule="evenodd" clip-rule="evenodd" fill="#FFFFFF" d="M1961.963,670.074c1.843,0,5.156-0.561,9.744,0.055
	c4.747,0.637,5.667,2.765,5.667,2.765s-1.027-0.282-2.409,0.638c-0.613,0.41-1.135,1.163-1.259,1.7
	c-0.046,0.216-0.017,0.956,0.304,0.427c0.318-0.532,2.41-0.108,2.994-0.054c0.584,0.054,7.813,0.902,10.151-0.265l1.806-0.214
	c0,0,0.745-1.224-1.381-1.595c0.904-0.586,4.04-4.746,7.229-3.898c3.189,0.85,6.962,1.295,6.962,1.295s0.798-0.48,0.266-0.691
	c-0.532-0.213-5.313-3.545-7.865-3.863c-2.552-0.316-7.193,3.793-9.853,4.96c-1.486,0.71-3.224-0.247-3.224-0.247
	s-5.103-4.357-6.589-4.571c-1.489-0.214-11.898,2.81-12.109,2.383C1961.547,669.006,1961.598,669.963,1961.963,670.074z"/>
<g>
	<g>
		<g>
			<path fill-rule="evenodd" clip-rule="evenodd" fill="#B2E0E1" d="M227.229,1370.597h113.05
				c-12.889,0-23.346-10.463-23.346-23.342c0-12.899,10.457-23.358,23.346-23.358h1739.723c12.899,0,23.349,10.459,23.349,23.358
				c0,12.879-10.449,23.342-23.349,23.342H1966.95c12.899,0,23.352,10.451,23.352,23.349c0,12.9-10.452,23.341-23.352,23.341
				h-412.89c12.897,0,23.349,10.46,23.349,23.349c0,12.899-10.451,23.359-23.349,23.359h284.349
				c12.896,0,23.349,10.444,23.349,23.342c0,12.898-10.452,23.351-23.349,23.351h-199.192c12.889,0,23.35,10.45,23.35,23.339
				c0,12.899-10.461,23.352-23.35,23.352H468.184c-12.899,0-23.35-10.452-23.35-23.352c0-12.889,10.45-23.339,23.35-23.339h199.191
				c-12.889,0-23.345-10.452-23.345-23.351c0-12.897,10.456-23.342,23.345-23.342H383.031c-12.897,0-23.354-10.46-23.354-23.359
				c0-12.889,10.456-23.349,23.354-23.349H227.229c-12.899,0-23.351-10.44-23.351-23.341
				C203.879,1381.048,214.33,1370.597,227.229,1370.597z"/>
		</g>
	</g>
</g>
<g>
	<path fill-rule="evenodd" clip-rule="evenodd" fill="#8DC63F" d="M2084.519,1201.234c4.6-13.181,7.627-27.149,8.8-41.715
		c7.414-91.893-61.068-172.393-152.96-179.807c-57.508-4.641-110.556,20.449-144.018,62.4c-8.956-2.742-18.329-4.594-28.048-5.377
		c-72.437-5.846-135.898,48.137-141.742,120.576c-0.188,2.324-0.31,4.637-0.373,6.942L2084.519,1201.234z"/>
	<path fill-rule="evenodd" clip-rule="evenodd" fill="#A1CD3A" d="M1940.348,979.722c-57.509-4.64-110.557,20.452-144.018,62.401
		c-8.955-2.74-18.329-4.595-28.049-5.379c-62.738-5.062-118.716,34.774-136.384,92.595c27.023,20.065,60.198,33.177,96.767,36.126
		c32.962,2.66,64.517-3.287,92.315-15.809c25.433,16.816,55.626,27.745,88.589,30.405c74.372,6.001,141.682-31.605,174.414-90.465
		C2062.465,1029.903,2007.722,985.158,1940.348,979.722z"/>
</g>
<path fill-rule="evenodd" clip-rule="evenodd" fill="#A1CD3A" d="M1572.688,1238.163l-1357.537-3.23
	c-61.476-61.966,28.535-180.722,115.045-230.634C478.572,918.691,1439.256,1109.176,1572.688,1238.163z"/>
<g>
	<path fill-rule="evenodd" clip-rule="evenodd" fill="#FEDF7C" d="M2058.866,1166.826H276.952
		c-57.392,0-103.589,36.404-103.589,81.619c0,45.216,46.197,81.614,103.594,81.614h1781.909c57.392,0,103.595-36.398,103.595-81.614
		C2162.461,1203.23,2116.258,1166.826,2058.866,1166.826z"/>
	<path fill-rule="evenodd" clip-rule="evenodd" fill="#DE9E6D" d="M2058.866,1274.26l-1802.644,15.138
		c-26.361-4.491-93.201-27.014-71.65-0.187c0,15.463,34.988,40.849,92.385,40.849h1781.909c57.392,0,103.595-12.439,103.595-27.897
		C2173.479,1212.563,2104.397,1273.231,2058.866,1274.26z"/>
	<path fill-rule="evenodd" clip-rule="evenodd" fill="#8DC63F" d="M2058.794,1156.314c36.26,17.261,84.602,29.35,86.328,39.711
		c1.726,10.357-18.987,41.438-32.802,41.438s-27.629-18.993-39.717-17.267c-12.083,1.726,1.73,17.267-29.35,12.088
		c-31.076-5.184-120.861-17.272-120.861-17.272s12.089,25.903-5.178,34.539c-17.267,8.625-13.814-29.354-13.814-29.354
		s-6.904,20.719-18.993,24.171c-12.088,3.452-3.452-29.355-3.452-29.355l-101.868,12.089c0,0-329.78,13.814-374.671,3.452
		c-44.89-10.356-43.163-22.439-120.86-12.083s-295.247-3.458-378.122,5.179c-82.881,8.636-122.588,3.452-176.108-1.727
		c-53.531-5.179-119.146,8.631-150.21,10.362c-31.092,1.727-212.389-13.814-212.389-13.814s-18.977,27.623-31.064,22.445
		c-12.088-5.179-18.998-20.719-18.998-20.719s8.641,12.088,0,15.54c-8.625,3.452-15.535-13.814-15.535-13.814s0,10.362-8.641,12.089
		c-8.621,1.726-8.621-17.268-8.621-17.268s-5.178,6.905-31.086,13.81c-25.907,6.91-72.508-15.541-72.508-15.541
		c20.506-38.383,52.089-46.326,85.47-49.35L2058.794,1156.314z"/>
	<path fill-rule="evenodd" clip-rule="evenodd" fill="#8DC63F" d="M2039.259,1185.612c36.259,17.267,104.137,0.052,105.863,10.413
		c1.726,10.357-18.987,41.438-32.802,41.438s-27.629-18.993-39.717-17.267c-12.083,1.726,1.73,17.267-29.35,12.088
		c-31.076-5.184-120.861-17.272-120.861-17.272s12.089,25.903-5.178,34.539c-17.267,8.625-13.814-29.354-13.814-29.354
		s-6.904,20.719-18.993,24.171c-12.088,3.452-3.452-29.355-3.452-29.355l-101.868,12.089c0,0-329.78,13.814-374.671,3.452
		c-44.89-10.356-43.163-22.439-120.86-12.083s-295.247-3.458-378.122,5.179c-82.881,8.636-122.588,3.452-176.108-1.727
		c-53.531-5.179-119.146,8.631-150.21,10.362c-31.092,1.727-212.389-13.814-212.389-13.814s-18.977,27.623-31.064,22.445
		c-12.088-5.179-18.998-20.719-18.998-20.719s8.641,12.088,0,15.54c-8.625,3.452-15.535-13.814-15.535-13.814s0,10.362-8.641,12.089
		c-8.621,1.726-8.621-17.268-8.621-17.268s-5.178,6.905-31.086,13.81c-25.907,6.91-72.508-15.541-72.508-15.541
		c20.506-38.383,91.795-13.524,125.176-16.537L2039.259,1185.612z"/>
</g>
<path fill-rule="evenodd" clip-rule="evenodd" fill="#D9EEEA" d="M958.672,1606.819h186.907c8.748,0,15.905-7.165,15.905-15.91
	c0-8.751-7.157-15.907-15.905-15.907H958.672c-8.752,0-15.909,7.156-15.909,15.907
	C942.763,1599.654,949.92,1606.819,958.672,1606.819z"/>
<path fill-rule="evenodd" clip-rule="evenodd" fill="#D9EEEA" d="M1182.03,1606.318c8.748,0,15.905-7.157,15.905-15.909
	c0-8.744-7.157-15.907-15.905-15.907c-8.747,0-15.904,7.163-15.904,15.907C1166.126,1599.161,1173.283,1606.318,1182.03,1606.318z"
	/>
<path fill-rule="evenodd" clip-rule="evenodd" fill="#D9EEEA" d="M1531.354,1529.346h51.193c8.346,0,15.17-6.826,15.17-15.17
	c0-8.338-6.824-15.163-15.17-15.163h-51.193c-8.346,0-15.172,6.825-15.172,15.163
	C1516.183,1522.52,1523.009,1529.346,1531.354,1529.346z"/>
<path fill-rule="evenodd" clip-rule="evenodd" fill="#D9EEEA" d="M806.26,1524.854h178.236c8.34,0,15.172-6.826,15.172-15.172
	s-6.832-15.17-15.172-15.17H806.26c-8.34,0-15.164,6.824-15.164,15.17S797.92,1524.854,806.26,1524.854z"/>
<path fill-rule="evenodd" clip-rule="evenodd" fill="#D9EEEA" d="M580.233,1451.599h51.192c8.346,0,15.172-6.825,15.172-15.17
	c0-8.339-6.826-15.163-15.172-15.163h-51.192c-8.345,0-15.169,6.824-15.169,15.163
	C565.064,1444.773,571.889,1451.599,580.233,1451.599z"/>
<path fill-rule="evenodd" clip-rule="evenodd" fill="#FFFFFF" d="M1674.322,1452.828c8.346,0,15.17-6.824,15.17-15.169
	c0-8.346-6.824-15.172-15.17-15.172c-8.339,0-15.163,6.826-15.163,15.172C1659.159,1446.004,1665.983,1452.828,1674.322,1452.828z"
	/>
<path fill-rule="evenodd" clip-rule="evenodd" fill="#FFFFFF" d="M1887.902,1404.361h51.193c8.345,0,15.172-6.825,15.172-15.17
	c0-8.34-6.827-15.162-15.172-15.162h-51.193c-8.347,0-15.17,6.822-15.17,15.162
	C1872.732,1397.536,1879.556,1404.361,1887.902,1404.361z"/>
<path fill-rule="evenodd" clip-rule="evenodd" fill="#FFFFFF" d="M1253.141,1513.846h186.909c8.747,0,15.904-7.165,15.904-15.908
	c0-8.752-7.157-15.908-15.904-15.908h-186.909c-8.751,0-15.909,7.156-15.909,15.908
	C1237.231,1506.681,1244.39,1513.846,1253.141,1513.846z"/>
<path fill-rule="evenodd" clip-rule="evenodd" fill="#FFFFFF" d="M1476.501,1513.346c8.747,0,15.904-7.158,15.904-15.91
	c0-8.744-7.157-15.907-15.904-15.907c-8.748,0-15.905,7.163-15.905,15.907C1460.596,1506.188,1467.753,1513.346,1476.501,1513.346z"
	/>
<path fill-rule="evenodd" clip-rule="evenodd" fill="#FFFFFF" d="M505.739,1548.936h51.193c8.346,0,15.169-6.828,15.169-15.172
	c0-8.337-6.823-15.164-15.169-15.164h-51.193c-8.346,0-15.172,6.827-15.172,15.164
	C490.567,1542.107,497.394,1548.936,505.739,1548.936z"/>
<path fill-rule="evenodd" clip-rule="evenodd" fill="#D9EEEA" d="M1456.791,1330.061H771.516v98.723l566.67-0.746
	c13.524,0,24.497-10.958,24.497-24.49c0-13.53-10.973-24.486-24.497-24.486h118.605c13.523,0,24.501-10.983,24.501-24.5
	C1481.292,1341.041,1470.314,1330.061,1456.791,1330.061z"/>
<path fill-rule="evenodd" clip-rule="evenodd" fill="#D9EEEA" d="M462,1330.061h309.516v98.723v-0.746
	c-13.528,0-24.498-10.958-24.498-24.49c0-13.53,10.97-24.486,24.498-24.486H462c-13.53,0-24.51-10.983-24.51-24.5
	C437.49,1341.041,448.47,1330.061,462,1330.061z"/>
<path fill-rule="evenodd" clip-rule="evenodd" fill="#C2E5E0" d="M1179.395,1475.961c8.345,0,15.169-6.824,15.169-15.17
	c0-8.345-6.824-15.171-15.169-15.171c-8.339,0-15.163,6.826-15.163,15.171C1164.231,1469.137,1171.056,1475.961,1179.395,1475.961z"
	/>
<path fill-rule="evenodd" clip-rule="evenodd" fill="#FFFFFF" d="M1031.217,1408.673h53.685c8.748,0,15.909-7.157,15.909-15.908
	c0-8.744-7.161-15.909-15.909-15.909h-53.685c-8.751,0-15.908,7.165-15.908,15.909
	C1015.309,1401.516,1022.466,1408.673,1031.217,1408.673z"/>
<path fill-rule="evenodd" clip-rule="evenodd" fill="#FFFFFF" d="M1125.334,1408.673c8.747,0,15.904-7.157,15.904-15.908
	c0-8.744-7.157-15.909-15.904-15.909c-8.751,0-15.908,7.165-15.908,15.909C1109.426,1401.516,1116.583,1408.673,1125.334,1408.673z"
	/>
<path fill-rule="evenodd" clip-rule="evenodd" fill="#B7D436" d="M701.03,1148.081c-18.406,0-36.813,0.001-55.221,0.001
	c-22.238-0.001-22.239-34.487,0-34.487c18.407,0,36.813,0,55.22,0C723.267,1113.595,723.267,1148.082,701.03,1148.081z"/>
<path fill-rule="evenodd" clip-rule="evenodd" fill="#B7D436" d="M532.359,1148.081c-84.15,0-168.299,0.001-252.447,0.001
	c-22.238-0.001-22.238-34.487,0-34.487c84.148,0,168.297,0,252.446,0C554.598,1113.595,554.598,1148.082,532.359,1148.081z"/>
<g>
	<polygon fill-rule="evenodd" clip-rule="evenodd" fill="#FFFFFF" points="511.534,1074.128 470.064,1074.128 477.725,573.85 
		502.472,573.85 	"/>
	<polygon fill-rule="evenodd" clip-rule="evenodd" fill="#DBDAD9" points="502.472,573.85 488.623,573.85 488.623,1074.128 
		511.534,1074.128 	"/>
	<path fill-rule="evenodd" clip-rule="evenodd" fill="#ECEDED" d="M502.209,598.638h-24.381c-4.67,0-8.46-3.778-8.46-8.447
		l0.002-27.717c0-4.665,3.786-8.448,8.456-8.448l24.383-0.002c4.67,0,8.452,3.785,8.452,8.454l0.002,27.71
		C510.663,594.859,506.879,598.642,502.209,598.638z"/>
	<path fill-rule="evenodd" clip-rule="evenodd" fill="#DBDAD9" d="M502.209,554.023H488.61v44.614h13.599
		c4.67,0,8.452-3.778,8.452-8.447l0.002-27.717C510.663,557.809,506.879,554.025,502.209,554.023z"/>
	<path fill-rule="evenodd" clip-rule="evenodd" fill="#FFFFFF" d="M464.967,585.718L260.201,708.672c0,0,6.023,7.456,14.288,4.607
		c12.7-4.378,191.902-84.89,191.902-84.89c0.002,0,3.035-37.481,16.962-43.601c10.496-4.619,2.043-11.338,2.043-11.338
		L464.967,585.718z"/>
	<path fill-rule="evenodd" clip-rule="evenodd" fill="#FFFFFF" d="M512.824,590.975l223.263,84.827c0,0,2.131-9.352-5.226-14.079
		c-11.292-7.271-185.508-95.398-185.508-95.398c0.002,0-31.223,17.924-44.646,10.774c-10.117-5.39-10.16,5.409-10.16,5.409
		L512.824,590.975z"/>
	<path fill-rule="evenodd" clip-rule="evenodd" fill="#FFFFFF" d="M493.871,555.525l-27.689-232.849c0,0-9.27,2.446-10.061,11.147
		c-1.213,13.379,2.337,203.752,2.337,203.752c0.002-0.002,28.839,19.904,28.728,35.113c-0.092,11.459,9.496,6.505,9.496,6.505
		L493.871,555.525z"/>
	<path fill-rule="evenodd" clip-rule="evenodd" fill="#FFFFFF" d="M472.58,578.313c-1.138-9.513,5.652-18.137,15.17-19.27
		c9.518-1.137,18.137,5.662,19.262,15.178c1.141,9.507-5.654,18.139-15.172,19.27C482.332,594.611,473.704,587.822,472.58,578.313z"
		/>
	<path fill-rule="evenodd" clip-rule="evenodd" fill="#DBDAD9" d="M480.733,577.334c-0.589-4.995,2.975-9.528,7.985-10.129
		c5.004-0.602,9.547,2.975,10.139,7.979c0.6,5.007-2.975,9.547-7.978,10.145C485.862,585.918,481.326,582.347,480.733,577.334z"/>
</g>
<g>
	<g>
		<ellipse fill-rule="evenodd" clip-rule="evenodd" fill="#583A20" cx="546.544" cy="1100.323" rx="23.761" ry="8.128"/>
		<ellipse fill-rule="evenodd" clip-rule="evenodd" fill="#6B4A28" cx="546.544" cy="1099.28" rx="23.761" ry="7.085"/>
		<ellipse fill-rule="evenodd" clip-rule="evenodd" fill="#583A20" cx="546.543" cy="1098.449" rx="12.245" ry="3.652"/>
		<g>
			<path fill-rule="evenodd" clip-rule="evenodd" fill="#6B4A28" d="M556.443,1097.771c0,4.167-19.798,4.167-19.798,0v-23.763
				h19.798V1097.771z"/>
			<rect x="536.646" y="1074.008" fill-rule="evenodd" clip-rule="evenodd" fill="#583A20" width="19.798" height="6.149"/>
		</g>
	</g>
	<g>
		<g>
			<rect x="486.275" y="978.393" fill-rule="evenodd" clip-rule="evenodd" fill="#CEC4A3" width="120.533" height="98.376"/>
			<rect x="486.275" y="976.895" fill-rule="evenodd" clip-rule="evenodd" fill="#EDE7C2" width="120.533" height="98.378"/>
			<rect x="546.631" y="976.895" fill-rule="evenodd" clip-rule="evenodd" fill="#E3D8B0" width="60.178" height="98.378"/>
		</g>
		<g>
			<g>
				<rect x="490.795" y="980.984" fill-rule="evenodd" clip-rule="evenodd" fill="#61C3A8" width="15.47" height="15.469"/>
				<rect x="510.031" y="980.984" fill-rule="evenodd" clip-rule="evenodd" fill="#61C3A8" width="15.472" height="15.469"/>
				<rect x="529.269" y="980.984" fill-rule="evenodd" clip-rule="evenodd" fill="#61C3A8" width="15.47" height="15.469"/>
				<rect x="548.506" y="980.984" fill-rule="evenodd" clip-rule="evenodd" fill="#4CB999" width="15.471" height="15.469"/>
				<rect x="567.742" y="980.984" fill-rule="evenodd" clip-rule="evenodd" fill="#4CB999" width="15.47" height="15.469"/>
				<rect x="586.977" y="980.984" fill-rule="evenodd" clip-rule="evenodd" fill="#4CB999" width="15.471" height="15.469"/>
			</g>
			<g>
				<rect x="490.795" y="999.619" fill-rule="evenodd" clip-rule="evenodd" fill="#61C3A8" width="15.47" height="15.47"/>
				<rect x="510.031" y="999.619" fill-rule="evenodd" clip-rule="evenodd" fill="#61C3A8" width="15.472" height="15.47"/>
				<rect x="529.269" y="999.619" fill-rule="evenodd" clip-rule="evenodd" fill="#61C3A8" width="15.47" height="15.47"/>
				<rect x="548.506" y="999.619" fill-rule="evenodd" clip-rule="evenodd" fill="#4CB999" width="15.471" height="15.47"/>
				<rect x="567.742" y="999.619" fill-rule="evenodd" clip-rule="evenodd" fill="#4CB999" width="15.47" height="15.47"/>
				<rect x="586.977" y="999.619" fill-rule="evenodd" clip-rule="evenodd" fill="#4CB999" width="15.471" height="15.47"/>
			</g>
			<g>
				<rect x="490.795" y="1018.254" fill-rule="evenodd" clip-rule="evenodd" fill="#61C3A8" width="15.47" height="15.469"/>
				<rect x="510.031" y="1018.254" fill-rule="evenodd" clip-rule="evenodd" fill="#61C3A8" width="15.472" height="15.469"/>
				<rect x="529.269" y="1018.254" fill-rule="evenodd" clip-rule="evenodd" fill="#61C3A8" width="15.47" height="15.469"/>
				<rect x="548.506" y="1018.254" fill-rule="evenodd" clip-rule="evenodd" fill="#4CB999" width="15.471" height="15.469"/>
				<rect x="567.742" y="1018.254" fill-rule="evenodd" clip-rule="evenodd" fill="#4CB999" width="15.47" height="15.469"/>
				<rect x="586.977" y="1018.254" fill-rule="evenodd" clip-rule="evenodd" fill="#4CB999" width="15.471" height="15.469"/>
			</g>
			<g>
				<rect x="490.795" y="1036.889" fill-rule="evenodd" clip-rule="evenodd" fill="#61C3A8" width="15.47" height="15.47"/>
				<rect x="510.031" y="1036.889" fill-rule="evenodd" clip-rule="evenodd" fill="#61C3A8" width="15.472" height="15.47"/>
				<rect x="529.269" y="1036.889" fill-rule="evenodd" clip-rule="evenodd" fill="#61C3A8" width="15.47" height="15.47"/>
				<rect x="548.506" y="1036.889" fill-rule="evenodd" clip-rule="evenodd" fill="#4CB999" width="15.471" height="15.47"/>
				<rect x="567.742" y="1036.889" fill-rule="evenodd" clip-rule="evenodd" fill="#4CB999" width="15.47" height="15.47"/>
				<rect x="586.977" y="1036.889" fill-rule="evenodd" clip-rule="evenodd" fill="#4CB999" width="15.471" height="15.47"/>
			</g>
			<g>
				<rect x="490.795" y="1055.523" fill-rule="evenodd" clip-rule="evenodd" fill="#61C3A8" width="15.47" height="15.473"/>
				<rect x="510.031" y="1055.523" fill-rule="evenodd" clip-rule="evenodd" fill="#61C3A8" width="15.472" height="15.473"/>
				<rect x="529.269" y="1055.523" fill-rule="evenodd" clip-rule="evenodd" fill="#61C3A8" width="15.47" height="15.473"/>
				<rect x="548.506" y="1055.523" fill-rule="evenodd" clip-rule="evenodd" fill="#4CB999" width="15.471" height="15.473"/>
				<rect x="567.742" y="1055.523" fill-rule="evenodd" clip-rule="evenodd" fill="#4CB999" width="15.47" height="15.473"/>
				<rect x="586.977" y="1055.523" fill-rule="evenodd" clip-rule="evenodd" fill="#4CB999" width="15.471" height="15.473"/>
			</g>
		</g>
	</g>
</g>
<g>
	<polygon fill-rule="evenodd" clip-rule="evenodd" fill="#FFFFFF" points="827.158,1058.32 793.424,1058.32 799.656,651.354 
		819.787,651.354 	"/>
	<polygon fill-rule="evenodd" clip-rule="evenodd" fill="#DBDAD9" points="819.787,651.354 808.521,651.354 808.521,1058.32 
		827.158,1058.32 	"/>
	<path fill-rule="evenodd" clip-rule="evenodd" fill="#ECEDED" d="M819.573,671.52H799.74c-3.799,0-6.883-3.074-6.883-6.873
		l0.002-22.547c0-3.795,3.08-6.871,6.879-6.871l19.835-0.002c3.799,0,6.876,3.078,6.876,6.877l0.002,22.541
		C826.451,668.445,823.372,671.522,819.573,671.52z"/>
	<path fill-rule="evenodd" clip-rule="evenodd" fill="#DBDAD9" d="M819.573,635.227h-11.063v36.293h11.063
		c3.799,0,6.876-3.074,6.876-6.873l0.002-22.547C826.451,638.305,823.372,635.229,819.573,635.227z"/>
	<path fill-rule="evenodd" clip-rule="evenodd" fill="#FFFFFF" d="M789.277,661.009L622.705,761.029c0,0,4.899,6.065,11.623,3.748
		c10.33-3.562,156.107-69.057,156.107-69.057c0.002,0,2.47-30.49,13.799-35.468c8.539-3.758,1.662-9.224,1.662-9.224
		L789.277,661.009z"/>
	<path fill-rule="evenodd" clip-rule="evenodd" fill="#FFFFFF" d="M828.208,665.285l181.619,69.005c0,0,1.734-7.607-4.25-11.454
		c-9.187-5.914-150.907-77.604-150.907-77.604c0.002,0-25.398,14.58-36.318,8.765c-8.23-4.384-8.266,4.401-8.266,4.401
		L828.208,665.285z"/>
	<path fill-rule="evenodd" clip-rule="evenodd" fill="#FFFFFF" d="M812.791,636.448L790.266,447.03c0,0-7.541,1.989-8.184,9.067
		c-0.986,10.885,1.9,165.748,1.9,165.748c0.002-0.002,23.461,16.193,23.369,28.564c-0.074,9.322,7.726,5.291,7.726,5.291
		L812.791,636.448z"/>
	<path fill-rule="evenodd" clip-rule="evenodd" fill="#FFFFFF" d="M795.471,654.984c-0.926-7.738,4.599-14.754,12.34-15.675
		c7.742-0.925,14.754,4.606,15.669,12.347c0.929,7.733-4.599,14.755-12.341,15.675C803.403,668.244,796.385,662.721,795.471,654.984
		z"/>
	<path fill-rule="evenodd" clip-rule="evenodd" fill="#DBDAD9" d="M802.104,654.188c-0.48-4.063,2.42-7.75,6.496-8.238
		c4.07-0.49,7.766,2.42,8.247,6.49c0.487,4.072-2.42,7.766-6.489,8.252C806.275,661.171,802.586,658.267,802.104,654.188z"/>
</g>
<g>
	<g>
		<ellipse fill-rule="evenodd" clip-rule="evenodd" fill="#583A20" cx="821.176" cy="1082.398" rx="19.329" ry="6.611"/>
		<ellipse fill-rule="evenodd" clip-rule="evenodd" fill="#6B4A28" cx="821.176" cy="1081.55" rx="19.329" ry="5.763"/>
		<ellipse fill-rule="evenodd" clip-rule="evenodd" fill="#583A20" cx="821.176" cy="1080.873" rx="9.96" ry="2.972"/>
		<g>
			<path fill-rule="evenodd" clip-rule="evenodd" fill="#6B4A28" d="M829.229,1080.321c0,3.39-16.105,3.39-16.105,0v-19.33h16.105
				V1080.321z"/>
			<rect x="813.124" y="1060.991" fill-rule="evenodd" clip-rule="evenodd" fill="#583A20" width="16.105" height="5.002"/>
		</g>
	</g>
	<g>
		<g>
			<rect x="772.148" y="983.209" fill-rule="evenodd" clip-rule="evenodd" fill="#CEC4A3" width="98.053" height="80.027"/>
			<rect x="772.148" y="981.991" fill-rule="evenodd" clip-rule="evenodd" fill="#EDE7C2" width="98.053" height="80.028"/>
			<rect x="821.248" y="981.991" fill-rule="evenodd" clip-rule="evenodd" fill="#E3D8B0" width="48.953" height="80.028"/>
		</g>
		<g>
			<g>
				<rect x="775.826" y="985.318" fill-rule="evenodd" clip-rule="evenodd" fill="#61C3A8" width="12.584" height="12.584"/>
				<rect x="791.474" y="985.318" fill-rule="evenodd" clip-rule="evenodd" fill="#61C3A8" width="12.587" height="12.584"/>
				<rect x="807.123" y="985.318" fill-rule="evenodd" clip-rule="evenodd" fill="#61C3A8" width="12.584" height="12.584"/>
				<rect x="822.772" y="985.318" fill-rule="evenodd" clip-rule="evenodd" fill="#4CB999" width="12.585" height="12.584"/>
				<rect x="838.421" y="985.318" fill-rule="evenodd" clip-rule="evenodd" fill="#4CB999" width="12.584" height="12.584"/>
				<rect x="854.067" y="985.318" fill-rule="evenodd" clip-rule="evenodd" fill="#4CB999" width="12.585" height="12.584"/>
			</g>
			<g>
				<rect x="775.826" y="1000.477" fill-rule="evenodd" clip-rule="evenodd" fill="#61C3A8" width="12.584" height="12.585"/>
				<rect x="791.474" y="1000.477" fill-rule="evenodd" clip-rule="evenodd" fill="#61C3A8" width="12.587" height="12.585"/>
				<rect x="807.123" y="1000.477" fill-rule="evenodd" clip-rule="evenodd" fill="#61C3A8" width="12.584" height="12.585"/>
				<rect x="822.772" y="1000.477" fill-rule="evenodd" clip-rule="evenodd" fill="#4CB999" width="12.585" height="12.585"/>
				<rect x="838.421" y="1000.477" fill-rule="evenodd" clip-rule="evenodd" fill="#4CB999" width="12.584" height="12.585"/>
				<rect x="854.067" y="1000.477" fill-rule="evenodd" clip-rule="evenodd" fill="#4CB999" width="12.585" height="12.585"/>
			</g>
			<g>
				<rect x="775.826" y="1015.637" fill-rule="evenodd" clip-rule="evenodd" fill="#61C3A8" width="12.584" height="12.584"/>
				<rect x="791.474" y="1015.637" fill-rule="evenodd" clip-rule="evenodd" fill="#61C3A8" width="12.587" height="12.584"/>
				<rect x="807.123" y="1015.637" fill-rule="evenodd" clip-rule="evenodd" fill="#61C3A8" width="12.584" height="12.584"/>
				<rect x="822.772" y="1015.637" fill-rule="evenodd" clip-rule="evenodd" fill="#4CB999" width="12.585" height="12.584"/>
				<rect x="838.421" y="1015.637" fill-rule="evenodd" clip-rule="evenodd" fill="#4CB999" width="12.584" height="12.584"/>
				<rect x="854.067" y="1015.637" fill-rule="evenodd" clip-rule="evenodd" fill="#4CB999" width="12.585" height="12.584"/>
			</g>
			<g>
				<rect x="775.826" y="1030.796" fill-rule="evenodd" clip-rule="evenodd" fill="#61C3A8" width="12.584" height="12.584"/>
				<rect x="791.474" y="1030.796" fill-rule="evenodd" clip-rule="evenodd" fill="#61C3A8" width="12.587" height="12.584"/>
				<rect x="807.123" y="1030.796" fill-rule="evenodd" clip-rule="evenodd" fill="#61C3A8" width="12.584" height="12.584"/>
				<rect x="822.772" y="1030.796" fill-rule="evenodd" clip-rule="evenodd" fill="#4CB999" width="12.585" height="12.584"/>
				<rect x="838.421" y="1030.796" fill-rule="evenodd" clip-rule="evenodd" fill="#4CB999" width="12.584" height="12.584"/>
				<rect x="854.067" y="1030.796" fill-rule="evenodd" clip-rule="evenodd" fill="#4CB999" width="12.585" height="12.584"/>
			</g>
			<g>
				<rect x="775.826" y="1045.954" fill-rule="evenodd" clip-rule="evenodd" fill="#61C3A8" width="12.584" height="12.586"/>
				<rect x="791.474" y="1045.954" fill-rule="evenodd" clip-rule="evenodd" fill="#61C3A8" width="12.587" height="12.586"/>
				<rect x="807.123" y="1045.954" fill-rule="evenodd" clip-rule="evenodd" fill="#61C3A8" width="12.584" height="12.586"/>
				<rect x="822.772" y="1045.954" fill-rule="evenodd" clip-rule="evenodd" fill="#4CB999" width="12.585" height="12.586"/>
				<rect x="838.421" y="1045.954" fill-rule="evenodd" clip-rule="evenodd" fill="#4CB999" width="12.584" height="12.586"/>
				<rect x="854.067" y="1045.954" fill-rule="evenodd" clip-rule="evenodd" fill="#4CB999" width="12.585" height="12.586"/>
			</g>
		</g>
	</g>
</g>
<path fill-rule="evenodd" clip-rule="evenodd" fill="#B7D436" d="M1643.961,1202.993c3.477-11.92-5.789-20.529-5.797-20.536v-0.001
	v0.001l0,0c3.809,8.611,0,19.543,0,19.543c-6.129-16.728-21.035-14.078-21.035-14.078c9.938,2.484,13.747,15.734,13.747,15.734
	c-7.118-5.96-14.568-1.329-14.574-1.326v0.001c2.422-0.187,4.541,0.745,6.245,1.982c2.838,2.063,4.52,4.974,4.52,4.974h3.448h14.309
	h3.774c-0.062-0.932,0.208-2.044,0.688-3.236c0.16-0.397,0.343-0.804,0.545-1.215c0.403-0.823,0.882-1.667,1.399-2.501
	c2.589-4.173,6.146-8.12,6.146-8.12C1647.936,1195.375,1643.961,1202.993,1643.961,1202.993z"/>
<g>
	<path fill-rule="evenodd" clip-rule="evenodd" fill="#B7D436" d="M1243.89,1208.426c-3.063-9.016-11.593-15.506-21.645-15.506
		s-18.582,6.49-21.646,15.506H1243.89z"/>
	<path fill-rule="evenodd" clip-rule="evenodd" fill="#B7D436" d="M1202.361,1208.426c-1.531-4.508-5.797-7.753-10.822-7.753
		s-9.291,3.245-10.822,7.753H1202.361z"/>
</g>
<g>
	<path fill-rule="evenodd" clip-rule="evenodd" fill="#B7D436" d="M846.339,1193.938c3.604-10.604,13.636-18.236,25.458-18.236
		c11.821,0,21.854,7.633,25.457,18.236H846.339z"/>
	<path fill-rule="evenodd" clip-rule="evenodd" fill="#B7D436" d="M895.182,1193.938c1.802-5.302,6.818-9.118,12.729-9.118
		c5.912,0,10.928,3.816,12.729,9.118H895.182z"/>
</g>
<path fill-rule="evenodd" clip-rule="evenodd" fill="#B7D436" d="M580.125,1117.636c0,0,5.93-1.785,10.393,2.997
	c0,0,0.116-0.45,0.182-1.257c0.132-1.614,0.064-4.655-1.525-8.373c-0.398-0.93-0.891-1.901-1.499-2.904s-1.333-2.035-2.194-3.088
	c0,0,6.887,3.188,10.075,14.155c0,0,0.51-5.866,7.778-8.544c0,0-4.008,5.502-2.933,9.437c0,0,3.73-3.57,8.927-3.442
	c0,0-0.842,0.358-1.896,1.099c-0.352,0.247-0.726,0.537-1.1,0.869c-0.375,0.333-0.75,0.709-1.102,1.13
	c-0.351,0.42-0.678,0.885-0.959,1.395c-0.141,0.255-0.27,0.521-0.384,0.798c-0.343,0.833-0.554,1.768-0.554,2.808h-2.301h-11.042
	h-1.832l0,0c0,0-0.188-0.439-0.588-1.1c-0.089-0.146-0.188-0.303-0.3-0.471c-0.252-0.381-0.556-0.803-0.93-1.251
	c-0.957-1.148-2.325-2.431-4.188-3.403C581.533,1118.165,580.857,1117.875,580.125,1117.636z"/>
<path fill-rule="evenodd" clip-rule="evenodd" fill="#B7D436" d="M1389.105,1193.627c-1.554-4.572-5.88-7.864-10.979-7.864
	s-9.426,3.292-10.979,7.864H1389.105z"/>
<path fill-rule="evenodd" clip-rule="evenodd" fill="#B7D436" d="M389.17,1193.477c-2.898-8.533-10.975-14.677-20.489-14.677
	s-17.589,6.144-20.489,14.677H389.17z"/>
<path fill-rule="evenodd" clip-rule="evenodd" fill="#B7D436" d="M977.76,1090.133c0,0,5.931-1.785,10.395,2.997
	c0,0,0.115-0.45,0.181-1.257c0.132-1.614,0.063-4.655-1.526-8.373c-0.397-0.93-0.891-1.901-1.498-2.904
	c-0.609-1.002-1.334-2.035-2.193-3.088c0,0,6.886,3.188,10.074,14.155c0,0,0.51-5.866,7.778-8.544c0,0-4.009,5.502-2.933,9.437
	c0,0,3.73-3.57,8.927-3.442c0,0-0.843,0.358-1.896,1.099c-0.351,0.247-0.726,0.537-1.101,0.869c-0.374,0.333-0.749,0.71-1.1,1.13
	c-0.352,0.42-0.68,0.885-0.961,1.395c-0.141,0.255-0.269,0.521-0.383,0.798c-0.343,0.833-0.554,1.768-0.554,2.808h-2.301h-11.042
	h-1.832l0,0c0,0-0.188-0.439-0.588-1.1c-0.089-0.146-0.188-0.303-0.299-0.471c-0.253-0.381-0.557-0.803-0.932-1.251
	c-0.955-1.148-2.324-2.431-4.187-3.403C979.169,1090.662,978.494,1090.372,977.76,1090.133z"/>
<path fill-rule="evenodd" clip-rule="evenodd" fill="#B7D436" d="M953.611,1109.009c0,0,4.532-1.364,7.943,2.29
	c0,0,0.088-0.344,0.139-0.961c0.1-1.233,0.049-3.557-1.166-6.398c-0.305-0.71-0.682-1.453-1.146-2.219
	c-0.465-0.767-1.018-1.556-1.676-2.36c0,0,5.262,2.437,7.699,10.817c0,0,0.389-4.482,5.944-6.529c0,0-3.063,4.205-2.241,7.212
	c0,0,2.85-2.729,6.821-2.631c0,0-0.644,0.273-1.449,0.84c-0.269,0.188-0.555,0.41-0.841,0.664c-0.286,0.255-0.572,0.542-0.841,0.863
	s-0.519,0.676-0.733,1.065c-0.107,0.194-0.206,0.398-0.293,0.61c-0.262,0.636-0.423,1.351-0.423,2.146h-1.759h-8.438h-1.399l0,0
	c0,0-0.145-0.336-0.449-0.841c-0.068-0.112-0.145-0.231-0.229-0.359c-0.193-0.291-0.426-0.613-0.711-0.957
	c-0.731-0.877-1.777-1.856-3.2-2.601C954.688,1109.413,954.172,1109.191,953.611,1109.009z"/>
<path fill-rule="evenodd" clip-rule="evenodd" fill="#B7D436" d="M1431.904,1194.795c0,0,3.17-0.954,5.557,1.603
	c0,0,0.062-0.24,0.097-0.672c0.07-0.863,0.034-2.489-0.815-4.478c-0.213-0.496-0.477-1.016-0.802-1.552s-0.712-1.089-1.172-1.651
	c0,0,3.681,1.705,5.386,7.568c0,0,0.272-3.136,4.159-4.568c0,0-2.144,2.941-1.568,5.046c0,0,1.995-1.909,4.773-1.841
	c0,0-0.451,0.191-1.015,0.588c-0.188,0.132-0.388,0.287-0.588,0.465s-0.4,0.379-0.589,0.604c-0.188,0.225-0.362,0.473-0.513,0.745
	c-0.075,0.137-0.145,0.279-0.205,0.427c-0.184,0.445-0.296,0.945-0.296,1.501h-1.23h-5.903h-0.979h-0.001c0,0-0.1-0.234-0.313-0.587
	c-0.048-0.079-0.101-0.162-0.16-0.252c-0.135-0.204-0.298-0.43-0.497-0.669c-0.512-0.614-1.243-1.3-2.239-1.82
	C1432.657,1195.078,1432.297,1194.923,1431.904,1194.795z"/>
<path fill-rule="evenodd" clip-rule="evenodd" fill="#B7D436" d="M1970.404,1201.766c-2.578-7.588-9.758-13.051-18.217-13.051
	c-8.46,0-15.639,5.463-18.217,13.051H1970.404z"/>
<g>
	<path fill-rule="evenodd" clip-rule="evenodd" fill="#4A6066" d="M1791.417,648.404l-0.001,535.102l-196.676-0.002V648.402
		c0.001-53.768,43.589-97.356,97.358-97.356h1.961C1747.828,551.046,1791.417,594.635,1791.417,648.404z"/>
	<path fill-rule="evenodd" clip-rule="evenodd" fill="#5B828A" d="M1781.757,1171.654c-0.45,0-0.896,0-1.349,0v-9.081
		c0-10.823-4.618-20.569-11.991-27.373l0.002-486.796l5.323,0.002v-0.002h17.675l-0.001,514.32
		C1787.804,1165.249,1784.552,1168.257,1781.757,1171.654z"/>
	<polygon fill-rule="evenodd" clip-rule="evenodd" fill="#4A6066" points="1756.091,664.128 1739.277,663.25 1739.277,650.428 
		1756.091,650.428 	"/>
	<polygon fill-rule="evenodd" clip-rule="evenodd" fill="#4A6066" points="1756.091,709.445 1739.277,708.566 1739.277,695.744 
		1756.091,695.744 	"/>
	<polygon fill-rule="evenodd" clip-rule="evenodd" fill="#4A6066" points="1756.091,757.924 1739.275,757.045 1739.275,744.224 
		1756.091,744.224 	"/>
	<polygon fill-rule="evenodd" clip-rule="evenodd" fill="#4A6066" points="1756.091,805.35 1739.275,804.471 1739.275,791.648 
		1756.091,791.648 	"/>
	<polygon fill-rule="evenodd" clip-rule="evenodd" fill="#4A6066" points="1756.091,853.828 1739.275,852.949 1739.275,840.127 
		1756.091,840.127 	"/>
	<path fill-rule="evenodd" clip-rule="evenodd" fill="#4A6066" d="M1756.091,902.834l-16.815-0.879v-12.822h16.815V902.834
		L1756.091,902.834z M1617.178,895.574l-22.438-1.173v-5.269h13.13L1617.178,895.574z"/>
	<path fill-rule="evenodd" clip-rule="evenodd" fill="#4A6066" d="M1756.091,951.313l-16.815-0.879v-12.822h16.815V951.313
		L1756.091,951.313z M1692.943,948.012l-64.199-3.354l-2.227-7.046h51.397L1692.943,948.012z"/>
	<polygon fill-rule="evenodd" clip-rule="evenodd" fill="#4A6066" points="1756.09,999.266 1644.163,993.414 1641.681,985.563 
		1756.09,985.563 	"/>
	<polygon fill-rule="evenodd" clip-rule="evenodd" fill="#4A6066" points="1756.09,1047.743 1659.752,1042.709 1657.011,1034.043 
		1756.09,1034.043 	"/>
	<polygon fill-rule="evenodd" clip-rule="evenodd" fill="#4A6066" points="1756.09,1096.749 1664.468,1091.961 1664.468,1083.048 
		1756.09,1083.048 	"/>
	<path fill-rule="evenodd" clip-rule="evenodd" fill="#DBDAD9" d="M1795.843,644.188v4.216l-205.129-0.002v-4.214
		c0-56.003,45.571-101.575,101.574-101.575h1.981C1750.273,542.615,1795.843,588.186,1795.843,644.188z"/>
	<polygon fill-rule="evenodd" clip-rule="evenodd" fill="#4E646C" points="1768.419,648.406 1739.277,648.404 1768.419,648.404 
		1768.419,648.404 	"/>
	<rect x="1768.419" y="648.404" fill-rule="evenodd" clip-rule="evenodd" fill="#597A81" width="5.323" height="0.002"/>
	<path fill-rule="evenodd" clip-rule="evenodd" fill="#BCBEC0" d="M1773.742,648.404h-5.323h-29.142h-1.124
		c-0.314-58.66-10.412-105.789-43.885-105.791c56.005,0.002,79.474,45.574,79.474,101.578V648.404z"/>
	<path fill-rule="evenodd" clip-rule="evenodd" fill="#556D76" d="M1591.259,651.334c41.825,0,144.881,0,186.707,0
		c5.959,0,11.916,0,17.874,0c3.768,0,3.773-5.855,0-5.855c-41.826,0-144.883,0-186.708,0c-5.957,0-11.915,0-17.874,0
		C1587.49,645.479,1587.484,651.334,1591.259,651.334z"/>
	<path fill-rule="evenodd" clip-rule="evenodd" fill="#556D76" d="M1751.876,1084.374c13.215,0,26.431,0,39.647,0
		c3.768,0,3.773-5.856,0-5.856c-13.216,0-26.433,0-39.648,0C1748.107,1078.518,1748.101,1084.374,1751.876,1084.374z"/>
	<path fill-rule="evenodd" clip-rule="evenodd" fill="#556D76" d="M1594.74,1084.375c28.942,0,115.55,0,144.492,0
		c4.215,0,8.429,0,12.643,0c3.77,0,3.776-5.859,0-5.859c-28.943,0-115.551,0-144.494,0c-4.213,0-8.427,0-12.642,0
		C1590.971,1078.516,1590.963,1084.375,1594.74,1084.375z"/>
	<path fill-rule="evenodd" clip-rule="evenodd" fill="#556D76" d="M1751.876,1035.895c13.215,0,26.431,0,39.647,0
		c3.768,0,3.773-5.855,0-5.855c-13.216,0-26.433,0-39.648,0C1748.107,1030.039,1748.101,1035.895,1751.876,1035.895z"/>
	<path fill-rule="evenodd" clip-rule="evenodd" fill="#556D76" d="M1594.74,1035.896c28.942,0,115.55,0,144.492,0
		c4.215,0,8.429,0,12.643,0c3.77,0,3.776-5.859,0-5.859c-28.943,0-115.551,0-144.494,0c-4.213,0-8.427,0-12.642,0
		C1590.971,1030.037,1590.963,1035.896,1594.74,1035.896z"/>
	<path fill-rule="evenodd" clip-rule="evenodd" fill="#556D76" d="M1751.876,987.416c13.215,0,26.431,0,39.647,0
		c3.768,0,3.773-5.855,0-5.855c-13.216,0-26.433,0-39.648,0C1748.107,981.561,1748.101,987.416,1751.876,987.416z"/>
	<path fill-rule="evenodd" clip-rule="evenodd" fill="#556D76" d="M1594.74,987.418c28.942,0,115.55,0,144.492,0
		c4.215,0,8.429,0,12.643,0c3.77,0,3.776-5.859,0-5.859c-28.943,0-115.551,0-144.494,0c-4.213,0-8.427,0-12.642,0
		C1590.971,981.559,1590.963,987.418,1594.74,987.418z"/>
	<path fill-rule="evenodd" clip-rule="evenodd" fill="#556D76" d="M1751.876,938.937c13.215,0,26.431,0,39.647,0
		c3.768,0,3.773-5.854,0-5.854c-13.216,0-26.433,0-39.648,0C1748.107,933.082,1748.101,938.937,1751.876,938.937z"/>
	<path fill-rule="evenodd" clip-rule="evenodd" fill="#556D76" d="M1751.876,890.458c13.215,0,26.431,0,39.647,0.001
		c3.768,0,3.773-5.855,0-5.855c-13.216,0-26.433,0-39.648,0C1748.107,884.604,1748.101,890.458,1751.876,890.458z"/>
	<path fill-rule="evenodd" clip-rule="evenodd" fill="#556D76" d="M1751.876,841.979c13.215,0,26.431,0,39.647,0
		c3.768,0,3.773-5.856,0-5.856c-13.216,0-26.433,0-39.648,0C1748.107,836.123,1748.101,841.979,1751.876,841.979z"/>
	<path fill-rule="evenodd" clip-rule="evenodd" fill="#556D76" d="M1751.876,793.501c13.215,0,26.431,0,39.647,0
		c3.768,0,3.773-5.855,0-5.855c-13.216,0-26.433,0-39.648,0C1748.107,787.646,1748.101,793.501,1751.876,793.501z"/>
	<path fill-rule="evenodd" clip-rule="evenodd" fill="#556D76" d="M1751.876,745.021c13.215,0,26.431,0,39.647,0
		c3.768,0,3.773-5.854,0-5.854c-13.216-0.001-26.433,0-39.648,0C1748.107,739.166,1748.101,745.021,1751.876,745.021z"/>
	<path fill-rule="evenodd" clip-rule="evenodd" fill="#FFFFFF" d="M1648.794,572.623c-15.51,9.932-26.355,25.247-30.045,43.351
		c-1.619,7.944,10.567,11.343,12.194,3.362c3.042-14.922,11.355-27.547,24.232-35.791
		C1662.01,579.168,1655.674,568.218,1648.794,572.623z"/>
	<path fill-rule="evenodd" clip-rule="evenodd" fill="#556D76" d="M1595.34,938.928c28.942,0,115.55,0,144.493,0
		c4.214,0,8.428,0,12.642,0c3.771,0,3.777-5.86,0-5.86c-28.943,0-115.551,0-144.494,0c-4.213,0-8.427,0-12.642,0
		C1591.57,933.067,1591.563,938.928,1595.34,938.928z"/>
	<path fill-rule="evenodd" clip-rule="evenodd" fill="#556D76" d="M1595.34,890.448c28.942,0,115.55,0,144.493,0
		c4.214,0,8.428,0,12.642,0c3.771,0,3.777-5.858,0-5.858c-28.943,0-115.551,0-144.494,0c-4.213,0-8.427,0-12.642,0
		C1591.57,884.59,1591.563,890.448,1595.34,890.448z"/>
	<path fill-rule="evenodd" clip-rule="evenodd" fill="#556D76" d="M1595.34,841.971c28.942,0,115.55,0,144.493,0
		c4.214,0,8.428,0,12.642,0c3.771,0,3.777-5.86,0-5.86c-28.943,0-115.551,0-144.494,0c-4.213,0-8.427,0-12.642,0
		C1591.57,836.11,1591.563,841.971,1595.34,841.971z"/>
	<path fill-rule="evenodd" clip-rule="evenodd" fill="#556D76" d="M1594.74,793.455c28.942,0,115.55,0,144.492,0
		c4.215,0,8.429,0,12.643,0c3.77,0,3.776-5.859,0-5.859c-28.943,0-115.551,0-144.494,0c-4.213,0-8.427,0-12.642,0
		C1590.971,787.596,1590.963,793.455,1594.74,793.455z"/>
	<path fill-rule="evenodd" clip-rule="evenodd" fill="#556D76" d="M1594.74,744.976c28.942,0,115.55,0,144.492,0
		c4.215,0,8.429,0,12.643,0c3.77,0,3.776-5.858,0-5.858c-28.943,0-115.551,0-144.494,0c-4.213,0-8.427,0-12.642,0
		C1590.971,739.117,1590.963,744.976,1594.74,744.976z"/>
	<path fill-rule="evenodd" clip-rule="evenodd" fill="#556D76" d="M1594.74,696.498c28.942,0,115.55,0,144.492,0
		c4.215,0,8.429,0,12.643,0c3.77,0,3.776-5.859,0-5.859c-28.943,0-115.551,0-144.494,0c-4.213,0-8.427,0-12.642,0
		C1590.971,690.639,1590.963,696.498,1594.74,696.498z"/>
	<path fill-rule="evenodd" clip-rule="evenodd" fill="#556D76" d="M1751.876,696.512c13.215,0,26.431,0,39.647,0
		c3.768,0,3.773-5.855,0-5.855c-13.216,0-26.433,0-39.648,0C1748.107,690.656,1748.101,696.512,1751.876,696.512z"/>
</g>
<g>
	<path fill-rule="evenodd" clip-rule="evenodd" fill="#4A6066" d="M1679.543,970.863c5.146,10.195,0.607,15.266-9.77,17.243
		l-17.92-8.981l-161.575-80.949l-161.567,80.949l-17.93,8.981c-11.425-0.923-14.413-6.828-9.771-17.243l109.737-54.978h1.874v-0.944
		l17.121-8.572l60.535-30.328L1679.543,970.863z"/>
	<path fill-rule="evenodd" clip-rule="evenodd" fill="#FFFFFF" d="M1490.278,922.373c16.632,0,30.106,13.473,30.106,30.105
		c0,16.621-13.475,30.106-30.106,30.106c-16.623,0-30.108-13.485-30.108-30.106C1460.17,935.846,1473.655,922.373,1490.278,922.373
		L1490.278,922.373z M1514.074,952.479L1514.074,952.479c0-13.142-10.656-23.798-23.796-23.798
		c-13.143,0-23.799,10.656-23.799,23.798c0,13.141,10.656,23.797,23.799,23.797C1503.418,976.275,1514.074,965.619,1514.074,952.479
		z"/>
	<path fill-rule="evenodd" clip-rule="evenodd" fill="#EFEEF1" d="M1490.278,976.275v-23.797h23.796
		C1514.074,965.619,1503.418,976.275,1490.278,976.275z"/>
	<path fill-rule="evenodd" clip-rule="evenodd" fill="#EFEEF1" d="M1490.278,928.681c13.14,0,23.796,10.656,23.796,23.798h-23.796
		V928.681z"/>
	<path fill-rule="evenodd" clip-rule="evenodd" fill="#EFEEF1" d="M1490.278,928.681v23.798h-23.799
		C1466.479,939.337,1477.136,928.681,1490.278,928.681z"/>
	<path fill-rule="evenodd" clip-rule="evenodd" fill="#EFEEF1" d="M1490.278,952.479v23.797c-13.143,0-23.799-10.656-23.799-23.797
		H1490.278z"/>
	<path fill-rule="evenodd" clip-rule="evenodd" fill="#4A6066" d="M1328.711,1170.863h119.039h6.898v6.32v6.32h-125.938h-22.522
		c-6.917-4.205-6.96-8.411,0-12.617v-0.023H1328.711z"/>
	<path fill-rule="evenodd" clip-rule="evenodd" fill="#4A6066" d="M1674.376,1170.863c6.054,4.127,6.728,8.331,0,12.641h-148.46
		v-6.32v-6.32h6.888h119.05H1674.376z"/>
	<path fill-rule="evenodd" clip-rule="evenodd" fill="#DBDAD9" d="M1651.854,979.125v191.738c-205.85,0-117.302,0-323.143,0v-6.286
		v-6.311v-6.31v-6.31v-6.3v-6.308v-6.312v-6.309v-6.31v-6.31v-6.311v-6.31v-6.308v-6.3v-6.31v-6.31v-6.311v-6.308v-16.169v-6.442
		v-12.086v-43.514l161.567-80.949L1651.854,979.125L1651.854,979.125z M1520.385,952.479L1520.385,952.479
		c0-16.633-13.475-30.105-30.106-30.105c-16.623,0-30.108,13.473-30.108,30.105c0,16.621,13.485,30.106,30.108,30.106
		C1506.91,982.585,1520.385,969.1,1520.385,952.479z"/>
	<g>
		<rect x="1375.416" y="1004.85" fill-rule="evenodd" clip-rule="evenodd" fill="#4A6066" width="234.133" height="178.981"/>
	</g>
	<g>
		<polygon fill-rule="evenodd" clip-rule="evenodd" fill="#FFFFFF" points="1371.449,1183.831 1379.385,1183.831 1379.385,1008.818 
			1605.58,1008.818 1605.58,1183.831 1613.516,1183.831 1613.516,1000.882 1371.449,1000.882 		"/>
	</g>
	<g>
		<g>
			<g>
				<rect x="1379.31" y="1020.125" fill-rule="evenodd" clip-rule="evenodd" fill="#73848E" width="226.344" height="3.969"/>
			</g>
		</g>
		<g>
			<g>
				<rect x="1379.31" y="1034.471" fill-rule="evenodd" clip-rule="evenodd" fill="#73848E" width="226.344" height="3.966"/>
			</g>
		</g>
		<g>
			<g>
				<rect x="1379.31" y="1048.812" fill-rule="evenodd" clip-rule="evenodd" fill="#73848E" width="226.344" height="3.967"/>
			</g>
		</g>
		<g>
			<g>
				<rect x="1379.31" y="1063.155" fill-rule="evenodd" clip-rule="evenodd" fill="#73848E" width="226.344" height="3.968"/>
			</g>
		</g>
		<g>
			<g>
				<rect x="1379.31" y="1077.498" fill-rule="evenodd" clip-rule="evenodd" fill="#73848E" width="226.344" height="3.967"/>
			</g>
		</g>
		<g>
			<g>
				<rect x="1379.31" y="1091.842" fill-rule="evenodd" clip-rule="evenodd" fill="#73848E" width="226.344" height="3.968"/>
			</g>
		</g>
		<g>
			<g>
				<rect x="1379.31" y="1106.184" fill-rule="evenodd" clip-rule="evenodd" fill="#73848E" width="226.344" height="3.968"/>
			</g>
		</g>
		<g>
			<g>
				<rect x="1379.31" y="1120.528" fill-rule="evenodd" clip-rule="evenodd" fill="#73848E" width="226.344" height="3.968"/>
			</g>
		</g>
		<g>
			<g>
				<rect x="1379.31" y="1134.87" fill-rule="evenodd" clip-rule="evenodd" fill="#73848E" width="226.344" height="3.968"/>
			</g>
		</g>
		<g>
			<g>
				<rect x="1379.31" y="1149.213" fill-rule="evenodd" clip-rule="evenodd" fill="#73848E" width="226.344" height="3.969"/>
			</g>
		</g>
		<g>
			<g>
				<rect x="1379.31" y="1163.556" fill-rule="evenodd" clip-rule="evenodd" fill="#73848E" width="226.344" height="3.969"/>
			</g>
		</g>
	</g>
</g>
<g>
	<path fill-rule="evenodd" clip-rule="evenodd" fill="#8DC63F" d="M1770.588,1188.625c1.075-4.119,1.652-8.44,1.652-12.896
		c0-28.115-22.792-50.907-50.908-50.907c-17.596,0-33.105,8.929-42.249,22.501c-2.789-0.613-5.685-0.947-8.658-0.947
		c-22.163,0-40.131,17.968-40.131,40.131c0,0.711,0.021,1.418,0.057,2.119H1770.588z"/>
	<path fill-rule="evenodd" clip-rule="evenodd" fill="#A1CD3A" d="M1721.329,1124.824c-17.597,0-33.106,8.929-42.249,22.502
		c-2.79-0.614-5.684-0.947-8.658-0.947c-19.196,0-35.235,13.482-39.188,31.492c8.706,5.438,19.112,8.609,30.301,8.609
		c10.086,0,19.532-2.582,27.676-7.071c8.143,4.489,17.59,7.071,27.676,7.071c22.754,0,42.293-13.083,50.801-31.778
		C1759.682,1137.084,1741.943,1124.824,1721.329,1124.824z"/>
</g>
</svg>
